<?xml version="1.0" encoding="utf-8" standalone="no"?>
<!DOCTYPE svg PUBLIC "-//W3C//DTD SVG 1.1//EN"
  "http://www.w3.org/Graphics/SVG/1.1/DTD/svg11.dtd">
<svg xmlns:xlink="http://www.w3.org/1999/xlink" width="711.763739pt" height="285.75625pt" viewBox="0 0 711.763739 285.75625" xmlns="http://www.w3.org/2000/svg" version="1.1">
 <metadata>
  <rdf:RDF xmlns:dc="http://purl.org/dc/elements/1.1/" xmlns:cc="http://creativecommons.org/ns#" xmlns:rdf="http://www.w3.org/1999/02/22-rdf-syntax-ns#">
   <cc:Work>
    <dc:type rdf:resource="http://purl.org/dc/dcmitype/StillImage"/>
    <dc:date>2025-09-09T05:27:05.796443</dc:date>
    <dc:format>image/svg+xml</dc:format>
    <dc:creator>
     <cc:Agent>
      <dc:title>Matplotlib v3.10.6, https://matplotlib.org/</dc:title>
     </cc:Agent>
    </dc:creator>
   </cc:Work>
  </rdf:RDF>
 </metadata>
 <defs>
  <style type="text/css">*{stroke-linejoin: round; stroke-linecap: butt}</style>
 </defs>
 <g id="figure_1">
  <g id="patch_1">
   <path d="M -0 285.75625 
L 711.763739 285.75625 
L 711.763739 0 
L -0 0 
z
" style="fill: #ffffff"/>
  </g>
  <g id="axes_1">
   <g id="patch_2">
    <path d="M 48.885 248.2 
L 232.266631 248.2 
L 232.266631 64.08 
L 48.885 64.08 
z
" style="fill: #ffffff"/>
   </g>
   <g id="patch_3">
    <path d="M 57.220529 248.2 
L 58.023429 248.2 
L 58.023429 247.732394 
L 57.220529 247.732394 
z
" clip-path="url(#pf5558a4c87)" style="fill: #1f77b4; opacity: 0.6"/>
   </g>
   <g id="patch_4">
    <path d="M 58.023429 248.2 
L 58.826329 248.2 
L 58.826329 244.926756 
L 58.023429 244.926756 
z
" clip-path="url(#pf5558a4c87)" style="fill: #1f77b4; opacity: 0.6"/>
   </g>
   <g id="patch_5">
    <path d="M 58.826329 248.2 
L 59.629229 248.2 
L 59.629229 243.991543 
L 58.826329 243.991543 
z
" clip-path="url(#pf5558a4c87)" style="fill: #1f77b4; opacity: 0.6"/>
   </g>
   <g id="patch_6">
    <path d="M 59.629229 248.2 
L 60.43213 248.2 
L 60.43213 236.509841 
L 59.629229 236.509841 
z
" clip-path="url(#pf5558a4c87)" style="fill: #1f77b4; opacity: 0.6"/>
   </g>
   <g id="patch_7">
    <path d="M 60.43213 248.2 
L 61.23503 248.2 
L 61.23503 227.157714 
L 60.43213 227.157714 
z
" clip-path="url(#pf5558a4c87)" style="fill: #1f77b4; opacity: 0.6"/>
   </g>
   <g id="patch_8">
    <path d="M 61.23503 248.2 
L 62.03793 248.2 
L 62.03793 207.518248 
L 61.23503 207.518248 
z
" clip-path="url(#pf5558a4c87)" style="fill: #1f77b4; opacity: 0.6"/>
   </g>
   <g id="patch_9">
    <path d="M 62.03793 248.2 
L 62.840831 248.2 
L 62.840831 187.878781 
L 62.03793 187.878781 
z
" clip-path="url(#pf5558a4c87)" style="fill: #1f77b4; opacity: 0.6"/>
   </g>
   <g id="patch_10">
    <path d="M 62.840831 248.2 
L 63.643731 248.2 
L 63.643731 155.613943 
L 62.840831 155.613943 
z
" clip-path="url(#pf5558a4c87)" style="fill: #1f77b4; opacity: 0.6"/>
   </g>
   <g id="patch_11">
    <path d="M 63.643731 248.2 
L 64.446631 248.2 
L 64.446631 136.442083 
L 63.643731 136.442083 
z
" clip-path="url(#pf5558a4c87)" style="fill: #1f77b4; opacity: 0.6"/>
   </g>
   <g id="patch_12">
    <path d="M 64.446631 248.2 
L 65.249531 248.2 
L 65.249531 100.436394 
L 64.446631 100.436394 
z
" clip-path="url(#pf5558a4c87)" style="fill: #1f77b4; opacity: 0.6"/>
   </g>
   <g id="patch_13">
    <path d="M 65.249531 248.2 
L 66.052432 248.2 
L 66.052432 76.120863 
L 65.249531 76.120863 
z
" clip-path="url(#pf5558a4c87)" style="fill: #1f77b4; opacity: 0.6"/>
   </g>
   <g id="patch_14">
    <path d="M 66.052432 248.2 
L 66.855332 248.2 
L 66.855332 72.847619 
L 66.052432 72.847619 
z
" clip-path="url(#pf5558a4c87)" style="fill: #1f77b4; opacity: 0.6"/>
   </g>
   <g id="patch_15">
    <path d="M 66.855332 248.2 
L 67.658232 248.2 
L 67.658232 108.385702 
L 66.855332 108.385702 
z
" clip-path="url(#pf5558a4c87)" style="fill: #1f77b4; opacity: 0.6"/>
   </g>
   <g id="patch_16">
    <path d="M 67.658232 248.2 
L 68.461132 248.2 
L 68.461132 112.126552 
L 67.658232 112.126552 
z
" clip-path="url(#pf5558a4c87)" style="fill: #1f77b4; opacity: 0.6"/>
   </g>
   <g id="patch_17">
    <path d="M 68.461132 248.2 
L 69.264033 248.2 
L 69.264033 140.65054 
L 68.461132 140.65054 
z
" clip-path="url(#pf5558a4c87)" style="fill: #1f77b4; opacity: 0.6"/>
   </g>
   <g id="patch_18">
    <path d="M 69.264033 248.2 
L 70.066933 248.2 
L 70.066933 173.85059 
L 69.264033 173.85059 
z
" clip-path="url(#pf5558a4c87)" style="fill: #1f77b4; opacity: 0.6"/>
   </g>
   <g id="patch_19">
    <path d="M 70.066933 248.2 
L 70.869833 248.2 
L 70.869833 195.360483 
L 70.066933 195.360483 
z
" clip-path="url(#pf5558a4c87)" style="fill: #1f77b4; opacity: 0.6"/>
   </g>
   <g id="patch_20">
    <path d="M 70.869833 248.2 
L 71.672734 248.2 
L 71.672734 227.625321 
L 70.869833 227.625321 
z
" clip-path="url(#pf5558a4c87)" style="fill: #1f77b4; opacity: 0.6"/>
   </g>
   <g id="patch_21">
    <path d="M 71.672734 248.2 
L 72.475634 248.2 
L 72.475634 234.639416 
L 71.672734 234.639416 
z
" clip-path="url(#pf5558a4c87)" style="fill: #1f77b4; opacity: 0.6"/>
   </g>
   <g id="patch_22">
    <path d="M 72.475634 248.2 
L 73.278534 248.2 
L 73.278534 242.588724 
L 72.475634 242.588724 
z
" clip-path="url(#pf5558a4c87)" style="fill: #1f77b4; opacity: 0.6"/>
   </g>
   <g id="patch_23">
    <path d="M 73.278534 248.2 
L 74.081434 248.2 
L 74.081434 245.861968 
L 73.278534 245.861968 
z
" clip-path="url(#pf5558a4c87)" style="fill: #1f77b4; opacity: 0.6"/>
   </g>
   <g id="patch_24">
    <path d="M 74.081434 248.2 
L 74.884335 248.2 
L 74.884335 245.394362 
L 74.081434 245.394362 
z
" clip-path="url(#pf5558a4c87)" style="fill: #1f77b4; opacity: 0.6"/>
   </g>
   <g id="patch_25">
    <path d="M 74.884335 248.2 
L 75.687235 248.2 
L 75.687235 246.797181 
L 74.884335 246.797181 
z
" clip-path="url(#pf5558a4c87)" style="fill: #1f77b4; opacity: 0.6"/>
   </g>
   <g id="patch_26">
    <path d="M 75.687235 248.2 
L 76.490135 248.2 
L 76.490135 247.732394 
L 75.687235 247.732394 
z
" clip-path="url(#pf5558a4c87)" style="fill: #1f77b4; opacity: 0.6"/>
   </g>
   <g id="patch_27">
    <path d="M 76.490135 248.2 
L 77.293035 248.2 
L 77.293035 246.797181 
L 76.490135 246.797181 
z
" clip-path="url(#pf5558a4c87)" style="fill: #1f77b4; opacity: 0.6"/>
   </g>
   <g id="patch_28">
    <path d="M 77.293035 248.2 
L 78.095936 248.2 
L 78.095936 248.2 
L 77.293035 248.2 
z
" clip-path="url(#pf5558a4c87)" style="fill: #1f77b4; opacity: 0.6"/>
   </g>
   <g id="patch_29">
    <path d="M 78.095936 248.2 
L 78.898836 248.2 
L 78.898836 247.264787 
L 78.095936 247.264787 
z
" clip-path="url(#pf5558a4c87)" style="fill: #1f77b4; opacity: 0.6"/>
   </g>
   <g id="patch_30">
    <path d="M 78.898836 248.2 
L 79.701736 248.2 
L 79.701736 247.264787 
L 78.898836 247.264787 
z
" clip-path="url(#pf5558a4c87)" style="fill: #1f77b4; opacity: 0.6"/>
   </g>
   <g id="patch_31">
    <path d="M 79.701736 248.2 
L 80.504637 248.2 
L 80.504637 247.732394 
L 79.701736 247.732394 
z
" clip-path="url(#pf5558a4c87)" style="fill: #1f77b4; opacity: 0.6"/>
   </g>
   <g id="patch_32">
    <path d="M 80.504637 248.2 
L 81.307537 248.2 
L 81.307537 247.732394 
L 80.504637 247.732394 
z
" clip-path="url(#pf5558a4c87)" style="fill: #1f77b4; opacity: 0.6"/>
   </g>
   <g id="patch_33">
    <path d="M 58.051115 248.2 
L 63.580448 248.2 
L 63.580448 222.83938 
L 58.051115 222.83938 
z
" clip-path="url(#pf5558a4c87)" style="fill: #ff7f0e; opacity: 0.6"/>
   </g>
   <g id="patch_34">
    <path d="M 63.580448 248.2 
L 69.109781 248.2 
L 69.109781 134.128134 
L 63.580448 134.128134 
z
" clip-path="url(#pf5558a4c87)" style="fill: #ff7f0e; opacity: 0.6"/>
   </g>
   <g id="patch_35">
    <path d="M 69.109781 248.2 
L 74.639114 248.2 
L 74.639114 222.83938 
L 69.109781 222.83938 
z
" clip-path="url(#pf5558a4c87)" style="fill: #ff7f0e; opacity: 0.6"/>
   </g>
   <g id="patch_36">
    <path d="M 74.639114 248.2 
L 80.168447 248.2 
L 80.168447 242.394557 
L 74.639114 242.394557 
z
" clip-path="url(#pf5558a4c87)" style="fill: #ff7f0e; opacity: 0.6"/>
   </g>
   <g id="patch_37">
    <path d="M 80.168447 248.2 
L 85.69778 248.2 
L 85.69778 244.126005 
L 80.168447 244.126005 
z
" clip-path="url(#pf5558a4c87)" style="fill: #ff7f0e; opacity: 0.6"/>
   </g>
   <g id="patch_38">
    <path d="M 85.69778 248.2 
L 91.227113 248.2 
L 91.227113 243.718605 
L 85.69778 243.718605 
z
" clip-path="url(#pf5558a4c87)" style="fill: #ff7f0e; opacity: 0.6"/>
   </g>
   <g id="patch_39">
    <path d="M 91.227113 248.2 
L 96.756446 248.2 
L 96.756446 244.329705 
L 91.227113 244.329705 
z
" clip-path="url(#pf5558a4c87)" style="fill: #ff7f0e; opacity: 0.6"/>
   </g>
   <g id="patch_40">
    <path d="M 96.756446 248.2 
L 102.285778 248.2 
L 102.285778 242.801956 
L 96.756446 242.801956 
z
" clip-path="url(#pf5558a4c87)" style="fill: #ff7f0e; opacity: 0.6"/>
   </g>
   <g id="patch_41">
    <path d="M 102.285778 248.2 
L 107.815111 248.2 
L 107.815111 245.144504 
L 102.285778 245.144504 
z
" clip-path="url(#pf5558a4c87)" style="fill: #ff7f0e; opacity: 0.6"/>
   </g>
   <g id="patch_42">
    <path d="M 107.815111 248.2 
L 113.344444 248.2 
L 113.344444 247.690751 
L 107.815111 247.690751 
z
" clip-path="url(#pf5558a4c87)" style="fill: #ff7f0e; opacity: 0.6"/>
   </g>
   <g id="patch_43">
    <path d="M 113.344444 248.2 
L 118.873777 248.2 
L 118.873777 248.2 
L 113.344444 248.2 
z
" clip-path="url(#pf5558a4c87)" style="fill: #ff7f0e; opacity: 0.6"/>
   </g>
   <g id="patch_44">
    <path d="M 118.873777 248.2 
L 124.40311 248.2 
L 124.40311 248.2 
L 118.873777 248.2 
z
" clip-path="url(#pf5558a4c87)" style="fill: #ff7f0e; opacity: 0.6"/>
   </g>
   <g id="patch_45">
    <path d="M 124.40311 248.2 
L 129.932443 248.2 
L 129.932443 248.2 
L 124.40311 248.2 
z
" clip-path="url(#pf5558a4c87)" style="fill: #ff7f0e; opacity: 0.6"/>
   </g>
   <g id="patch_46">
    <path d="M 129.932443 248.2 
L 135.461776 248.2 
L 135.461776 248.2 
L 129.932443 248.2 
z
" clip-path="url(#pf5558a4c87)" style="fill: #ff7f0e; opacity: 0.6"/>
   </g>
   <g id="patch_47">
    <path d="M 135.461776 248.2 
L 140.991109 248.2 
L 140.991109 247.588901 
L 135.461776 247.588901 
z
" clip-path="url(#pf5558a4c87)" style="fill: #ff7f0e; opacity: 0.6"/>
   </g>
   <g id="patch_48">
    <path d="M 140.991109 248.2 
L 146.520442 248.2 
L 146.520442 247.7926 
L 140.991109 247.7926 
z
" clip-path="url(#pf5558a4c87)" style="fill: #ff7f0e; opacity: 0.6"/>
   </g>
   <g id="patch_49">
    <path d="M 146.520442 248.2 
L 152.049775 248.2 
L 152.049775 247.487051 
L 146.520442 247.487051 
z
" clip-path="url(#pf5558a4c87)" style="fill: #ff7f0e; opacity: 0.6"/>
   </g>
   <g id="patch_50">
    <path d="M 152.049775 248.2 
L 157.579107 248.2 
L 157.579107 247.385201 
L 152.049775 247.385201 
z
" clip-path="url(#pf5558a4c87)" style="fill: #ff7f0e; opacity: 0.6"/>
   </g>
   <g id="patch_51">
    <path d="M 157.579107 248.2 
L 163.10844 248.2 
L 163.10844 247.7926 
L 157.579107 247.7926 
z
" clip-path="url(#pf5558a4c87)" style="fill: #ff7f0e; opacity: 0.6"/>
   </g>
   <g id="patch_52">
    <path d="M 163.10844 248.2 
L 168.637773 248.2 
L 168.637773 247.9963 
L 163.10844 247.9963 
z
" clip-path="url(#pf5558a4c87)" style="fill: #ff7f0e; opacity: 0.6"/>
   </g>
   <g id="patch_53">
    <path d="M 168.637773 248.2 
L 174.167106 248.2 
L 174.167106 247.89445 
L 168.637773 247.89445 
z
" clip-path="url(#pf5558a4c87)" style="fill: #ff7f0e; opacity: 0.6"/>
   </g>
   <g id="patch_54">
    <path d="M 174.167106 248.2 
L 179.696439 248.2 
L 179.696439 247.588901 
L 174.167106 247.588901 
z
" clip-path="url(#pf5558a4c87)" style="fill: #ff7f0e; opacity: 0.6"/>
   </g>
   <g id="patch_55">
    <path d="M 179.696439 248.2 
L 185.225772 248.2 
L 185.225772 247.385201 
L 179.696439 247.385201 
z
" clip-path="url(#pf5558a4c87)" style="fill: #ff7f0e; opacity: 0.6"/>
   </g>
   <g id="patch_56">
    <path d="M 185.225772 248.2 
L 190.755105 248.2 
L 190.755105 247.181501 
L 185.225772 247.181501 
z
" clip-path="url(#pf5558a4c87)" style="fill: #ff7f0e; opacity: 0.6"/>
   </g>
   <g id="patch_57">
    <path d="M 190.755105 248.2 
L 196.284438 248.2 
L 196.284438 247.385201 
L 190.755105 247.385201 
z
" clip-path="url(#pf5558a4c87)" style="fill: #ff7f0e; opacity: 0.6"/>
   </g>
   <g id="patch_58">
    <path d="M 196.284438 248.2 
L 201.813771 248.2 
L 201.813771 247.385201 
L 196.284438 247.385201 
z
" clip-path="url(#pf5558a4c87)" style="fill: #ff7f0e; opacity: 0.6"/>
   </g>
   <g id="patch_59">
    <path d="M 201.813771 248.2 
L 207.343104 248.2 
L 207.343104 247.7926 
L 201.813771 247.7926 
z
" clip-path="url(#pf5558a4c87)" style="fill: #ff7f0e; opacity: 0.6"/>
   </g>
   <g id="patch_60">
    <path d="M 207.343104 248.2 
L 212.872437 248.2 
L 212.872437 246.977801 
L 207.343104 246.977801 
z
" clip-path="url(#pf5558a4c87)" style="fill: #ff7f0e; opacity: 0.6"/>
   </g>
   <g id="patch_61">
    <path d="M 212.872437 248.2 
L 218.401769 248.2 
L 218.401769 247.7926 
L 212.872437 247.7926 
z
" clip-path="url(#pf5558a4c87)" style="fill: #ff7f0e; opacity: 0.6"/>
   </g>
   <g id="patch_62">
    <path d="M 218.401769 248.2 
L 223.931102 248.2 
L 223.931102 246.061153 
L 218.401769 246.061153 
z
" clip-path="url(#pf5558a4c87)" style="fill: #ff7f0e; opacity: 0.6"/>
   </g>
   <g id="matplotlib.axis_1">
    <g id="xtick_1">
     <g id="line2d_1">
      <defs>
       <path id="m000b5d50b2" d="M 0 0 
L 0 3.5 
" style="stroke: #000000; stroke-width: 0.8"/>
      </defs>
      <g>
       <use xlink:href="#m000b5d50b2" x="57.813805" y="248.2" style="stroke: #000000; stroke-width: 0.8"/>
      </g>
     </g>
     <g id="text_1">
      <!-- 0.5 -->
      <g transform="translate(50.657398 262.038594) scale(0.09 -0.09)">
       <defs>
        <path id="DejaVuSans-30" d="M 2034 4250 
Q 1547 4250 1301 3770 
Q 1056 3291 1056 2328 
Q 1056 1369 1301 889 
Q 1547 409 2034 409 
Q 2525 409 2770 889 
Q 3016 1369 3016 2328 
Q 3016 3291 2770 3770 
Q 2525 4250 2034 4250 
z
M 2034 4750 
Q 2819 4750 3233 4129 
Q 3647 3509 3647 2328 
Q 3647 1150 3233 529 
Q 2819 -91 2034 -91 
Q 1250 -91 836 529 
Q 422 1150 422 2328 
Q 422 3509 836 4129 
Q 1250 4750 2034 4750 
z
" transform="scale(0.015625)"/>
        <path id="DejaVuSans-2e" d="M 684 794 
L 1344 794 
L 1344 0 
L 684 0 
L 684 794 
z
" transform="scale(0.015625)"/>
        <path id="DejaVuSans-35" d="M 691 4666 
L 3169 4666 
L 3169 4134 
L 1269 4134 
L 1269 2991 
Q 1406 3038 1543 3061 
Q 1681 3084 1819 3084 
Q 2600 3084 3056 2656 
Q 3513 2228 3513 1497 
Q 3513 744 3044 326 
Q 2575 -91 1722 -91 
Q 1428 -91 1123 -41 
Q 819 9 494 109 
L 494 744 
Q 775 591 1075 516 
Q 1375 441 1709 441 
Q 2250 441 2565 725 
Q 2881 1009 2881 1497 
Q 2881 1984 2565 2268 
Q 2250 2553 1709 2553 
Q 1456 2553 1204 2497 
Q 953 2441 691 2322 
L 691 4666 
z
" transform="scale(0.015625)"/>
       </defs>
       <use xlink:href="#DejaVuSans-30"/>
       <use xlink:href="#DejaVuSans-2e" transform="translate(63.623047 0)"/>
       <use xlink:href="#DejaVuSans-35" transform="translate(95.410156 0)"/>
      </g>
     </g>
    </g>
    <g id="xtick_2">
     <g id="line2d_2">
      <g>
       <use xlink:href="#m000b5d50b2" x="117.141411" y="248.2" style="stroke: #000000; stroke-width: 0.8"/>
      </g>
     </g>
     <g id="text_2">
      <!-- 1.0 -->
      <g transform="translate(109.985005 262.038594) scale(0.09 -0.09)">
       <defs>
        <path id="DejaVuSans-31" d="M 794 531 
L 1825 531 
L 1825 4091 
L 703 3866 
L 703 4441 
L 1819 4666 
L 2450 4666 
L 2450 531 
L 3481 531 
L 3481 0 
L 794 0 
L 794 531 
z
" transform="scale(0.015625)"/>
       </defs>
       <use xlink:href="#DejaVuSans-31"/>
       <use xlink:href="#DejaVuSans-2e" transform="translate(63.623047 0)"/>
       <use xlink:href="#DejaVuSans-30" transform="translate(95.410156 0)"/>
      </g>
     </g>
    </g>
    <g id="xtick_3">
     <g id="line2d_3">
      <g>
       <use xlink:href="#m000b5d50b2" x="176.469017" y="248.2" style="stroke: #000000; stroke-width: 0.8"/>
      </g>
     </g>
     <g id="text_3">
      <!-- 1.5 -->
      <g transform="translate(169.312611 262.038594) scale(0.09 -0.09)">
       <use xlink:href="#DejaVuSans-31"/>
       <use xlink:href="#DejaVuSans-2e" transform="translate(63.623047 0)"/>
       <use xlink:href="#DejaVuSans-35" transform="translate(95.410156 0)"/>
      </g>
     </g>
    </g>
    <g id="text_4">
     <!-- Value -->
     <g transform="translate(125.471441 276.268594) scale(0.11 -0.11)">
      <defs>
       <path id="DejaVuSans-56" d="M 1831 0 
L 50 4666 
L 709 4666 
L 2188 738 
L 3669 4666 
L 4325 4666 
L 2547 0 
L 1831 0 
z
" transform="scale(0.015625)"/>
       <path id="DejaVuSans-61" d="M 2194 1759 
Q 1497 1759 1228 1600 
Q 959 1441 959 1056 
Q 959 750 1161 570 
Q 1363 391 1709 391 
Q 2188 391 2477 730 
Q 2766 1069 2766 1631 
L 2766 1759 
L 2194 1759 
z
M 3341 1997 
L 3341 0 
L 2766 0 
L 2766 531 
Q 2569 213 2275 61 
Q 1981 -91 1556 -91 
Q 1019 -91 701 211 
Q 384 513 384 1019 
Q 384 1609 779 1909 
Q 1175 2209 1959 2209 
L 2766 2209 
L 2766 2266 
Q 2766 2663 2505 2880 
Q 2244 3097 1772 3097 
Q 1472 3097 1187 3025 
Q 903 2953 641 2809 
L 641 3341 
Q 956 3463 1253 3523 
Q 1550 3584 1831 3584 
Q 2591 3584 2966 3190 
Q 3341 2797 3341 1997 
z
" transform="scale(0.015625)"/>
       <path id="DejaVuSans-6c" d="M 603 4863 
L 1178 4863 
L 1178 0 
L 603 0 
L 603 4863 
z
" transform="scale(0.015625)"/>
       <path id="DejaVuSans-75" d="M 544 1381 
L 544 3500 
L 1119 3500 
L 1119 1403 
Q 1119 906 1312 657 
Q 1506 409 1894 409 
Q 2359 409 2629 706 
Q 2900 1003 2900 1516 
L 2900 3500 
L 3475 3500 
L 3475 0 
L 2900 0 
L 2900 538 
Q 2691 219 2414 64 
Q 2138 -91 1772 -91 
Q 1169 -91 856 284 
Q 544 659 544 1381 
z
M 1991 3584 
L 1991 3584 
z
" transform="scale(0.015625)"/>
       <path id="DejaVuSans-65" d="M 3597 1894 
L 3597 1613 
L 953 1613 
Q 991 1019 1311 708 
Q 1631 397 2203 397 
Q 2534 397 2845 478 
Q 3156 559 3463 722 
L 3463 178 
Q 3153 47 2828 -22 
Q 2503 -91 2169 -91 
Q 1331 -91 842 396 
Q 353 884 353 1716 
Q 353 2575 817 3079 
Q 1281 3584 2069 3584 
Q 2775 3584 3186 3129 
Q 3597 2675 3597 1894 
z
M 3022 2063 
Q 3016 2534 2758 2815 
Q 2500 3097 2075 3097 
Q 1594 3097 1305 2825 
Q 1016 2553 972 2059 
L 3022 2063 
z
" transform="scale(0.015625)"/>
      </defs>
      <use xlink:href="#DejaVuSans-56"/>
      <use xlink:href="#DejaVuSans-61" transform="translate(60.658203 0)"/>
      <use xlink:href="#DejaVuSans-6c" transform="translate(121.9375 0)"/>
      <use xlink:href="#DejaVuSans-75" transform="translate(149.720703 0)"/>
      <use xlink:href="#DejaVuSans-65" transform="translate(213.099609 0)"/>
     </g>
    </g>
   </g>
   <g id="matplotlib.axis_2">
    <g id="ytick_1">
     <g id="line2d_4">
      <defs>
       <path id="m7d2c34a6a4" d="M 0 0 
L -3.5 0 
" style="stroke: #000000; stroke-width: 0.8"/>
      </defs>
      <g>
       <use xlink:href="#m7d2c34a6a4" x="48.885" y="248.2" style="stroke: #000000; stroke-width: 0.8"/>
      </g>
     </g>
     <g id="text_5">
      <!-- 0.0 -->
      <g transform="translate(27.572188 251.619297) scale(0.09 -0.09)">
       <use xlink:href="#DejaVuSans-30"/>
       <use xlink:href="#DejaVuSans-2e" transform="translate(63.623047 0)"/>
       <use xlink:href="#DejaVuSans-30" transform="translate(95.410156 0)"/>
      </g>
     </g>
    </g>
    <g id="ytick_2">
     <g id="line2d_5">
      <g>
       <use xlink:href="#m7d2c34a6a4" x="48.885" y="224.468978" style="stroke: #000000; stroke-width: 0.8"/>
      </g>
     </g>
     <g id="text_6">
      <!-- 2.5 -->
      <g transform="translate(27.572188 227.888275) scale(0.09 -0.09)">
       <defs>
        <path id="DejaVuSans-32" d="M 1228 531 
L 3431 531 
L 3431 0 
L 469 0 
L 469 531 
Q 828 903 1448 1529 
Q 2069 2156 2228 2338 
Q 2531 2678 2651 2914 
Q 2772 3150 2772 3378 
Q 2772 3750 2511 3984 
Q 2250 4219 1831 4219 
Q 1534 4219 1204 4116 
Q 875 4013 500 3803 
L 500 4441 
Q 881 4594 1212 4672 
Q 1544 4750 1819 4750 
Q 2544 4750 2975 4387 
Q 3406 4025 3406 3419 
Q 3406 3131 3298 2873 
Q 3191 2616 2906 2266 
Q 2828 2175 2409 1742 
Q 1991 1309 1228 531 
z
" transform="scale(0.015625)"/>
       </defs>
       <use xlink:href="#DejaVuSans-32"/>
       <use xlink:href="#DejaVuSans-2e" transform="translate(63.623047 0)"/>
       <use xlink:href="#DejaVuSans-35" transform="translate(95.410156 0)"/>
      </g>
     </g>
    </g>
    <g id="ytick_3">
     <g id="line2d_6">
      <g>
       <use xlink:href="#m7d2c34a6a4" x="48.885" y="200.737956" style="stroke: #000000; stroke-width: 0.8"/>
      </g>
     </g>
     <g id="text_7">
      <!-- 5.0 -->
      <g transform="translate(27.572188 204.157252) scale(0.09 -0.09)">
       <use xlink:href="#DejaVuSans-35"/>
       <use xlink:href="#DejaVuSans-2e" transform="translate(63.623047 0)"/>
       <use xlink:href="#DejaVuSans-30" transform="translate(95.410156 0)"/>
      </g>
     </g>
    </g>
    <g id="ytick_4">
     <g id="line2d_7">
      <g>
       <use xlink:href="#m7d2c34a6a4" x="48.885" y="177.006933" style="stroke: #000000; stroke-width: 0.8"/>
      </g>
     </g>
     <g id="text_8">
      <!-- 7.5 -->
      <g transform="translate(27.572188 180.42623) scale(0.09 -0.09)">
       <defs>
        <path id="DejaVuSans-37" d="M 525 4666 
L 3525 4666 
L 3525 4397 
L 1831 0 
L 1172 0 
L 2766 4134 
L 525 4134 
L 525 4666 
z
" transform="scale(0.015625)"/>
       </defs>
       <use xlink:href="#DejaVuSans-37"/>
       <use xlink:href="#DejaVuSans-2e" transform="translate(63.623047 0)"/>
       <use xlink:href="#DejaVuSans-35" transform="translate(95.410156 0)"/>
      </g>
     </g>
    </g>
    <g id="ytick_5">
     <g id="line2d_8">
      <g>
       <use xlink:href="#m7d2c34a6a4" x="48.885" y="153.275911" style="stroke: #000000; stroke-width: 0.8"/>
      </g>
     </g>
     <g id="text_9">
      <!-- 10.0 -->
      <g transform="translate(21.845938 156.695208) scale(0.09 -0.09)">
       <use xlink:href="#DejaVuSans-31"/>
       <use xlink:href="#DejaVuSans-30" transform="translate(63.623047 0)"/>
       <use xlink:href="#DejaVuSans-2e" transform="translate(127.246094 0)"/>
       <use xlink:href="#DejaVuSans-30" transform="translate(159.033203 0)"/>
      </g>
     </g>
    </g>
    <g id="ytick_6">
     <g id="line2d_9">
      <g>
       <use xlink:href="#m7d2c34a6a4" x="48.885" y="129.544889" style="stroke: #000000; stroke-width: 0.8"/>
      </g>
     </g>
     <g id="text_10">
      <!-- 12.5 -->
      <g transform="translate(21.845938 132.964186) scale(0.09 -0.09)">
       <use xlink:href="#DejaVuSans-31"/>
       <use xlink:href="#DejaVuSans-32" transform="translate(63.623047 0)"/>
       <use xlink:href="#DejaVuSans-2e" transform="translate(127.246094 0)"/>
       <use xlink:href="#DejaVuSans-35" transform="translate(159.033203 0)"/>
      </g>
     </g>
    </g>
    <g id="ytick_7">
     <g id="line2d_10">
      <g>
       <use xlink:href="#m7d2c34a6a4" x="48.885" y="105.813867" style="stroke: #000000; stroke-width: 0.8"/>
      </g>
     </g>
     <g id="text_11">
      <!-- 15.0 -->
      <g transform="translate(21.845938 109.233164) scale(0.09 -0.09)">
       <use xlink:href="#DejaVuSans-31"/>
       <use xlink:href="#DejaVuSans-35" transform="translate(63.623047 0)"/>
       <use xlink:href="#DejaVuSans-2e" transform="translate(127.246094 0)"/>
       <use xlink:href="#DejaVuSans-30" transform="translate(159.033203 0)"/>
      </g>
     </g>
    </g>
    <g id="ytick_8">
     <g id="line2d_11">
      <g>
       <use xlink:href="#m7d2c34a6a4" x="48.885" y="82.082844" style="stroke: #000000; stroke-width: 0.8"/>
      </g>
     </g>
     <g id="text_12">
      <!-- 17.5 -->
      <g transform="translate(21.845938 85.502141) scale(0.09 -0.09)">
       <use xlink:href="#DejaVuSans-31"/>
       <use xlink:href="#DejaVuSans-37" transform="translate(63.623047 0)"/>
       <use xlink:href="#DejaVuSans-2e" transform="translate(127.246094 0)"/>
       <use xlink:href="#DejaVuSans-35" transform="translate(159.033203 0)"/>
      </g>
     </g>
    </g>
    <g id="text_13">
     <!-- Density -->
     <g transform="translate(15.558281 177.049453) rotate(-90) scale(0.11 -0.11)">
      <defs>
       <path id="DejaVuSans-44" d="M 1259 4147 
L 1259 519 
L 2022 519 
Q 2988 519 3436 956 
Q 3884 1394 3884 2338 
Q 3884 3275 3436 3711 
Q 2988 4147 2022 4147 
L 1259 4147 
z
M 628 4666 
L 1925 4666 
Q 3281 4666 3915 4102 
Q 4550 3538 4550 2338 
Q 4550 1131 3912 565 
Q 3275 0 1925 0 
L 628 0 
L 628 4666 
z
" transform="scale(0.015625)"/>
       <path id="DejaVuSans-6e" d="M 3513 2113 
L 3513 0 
L 2938 0 
L 2938 2094 
Q 2938 2591 2744 2837 
Q 2550 3084 2163 3084 
Q 1697 3084 1428 2787 
Q 1159 2491 1159 1978 
L 1159 0 
L 581 0 
L 581 3500 
L 1159 3500 
L 1159 2956 
Q 1366 3272 1645 3428 
Q 1925 3584 2291 3584 
Q 2894 3584 3203 3211 
Q 3513 2838 3513 2113 
z
" transform="scale(0.015625)"/>
       <path id="DejaVuSans-73" d="M 2834 3397 
L 2834 2853 
Q 2591 2978 2328 3040 
Q 2066 3103 1784 3103 
Q 1356 3103 1142 2972 
Q 928 2841 928 2578 
Q 928 2378 1081 2264 
Q 1234 2150 1697 2047 
L 1894 2003 
Q 2506 1872 2764 1633 
Q 3022 1394 3022 966 
Q 3022 478 2636 193 
Q 2250 -91 1575 -91 
Q 1294 -91 989 -36 
Q 684 19 347 128 
L 347 722 
Q 666 556 975 473 
Q 1284 391 1588 391 
Q 1994 391 2212 530 
Q 2431 669 2431 922 
Q 2431 1156 2273 1281 
Q 2116 1406 1581 1522 
L 1381 1569 
Q 847 1681 609 1914 
Q 372 2147 372 2553 
Q 372 3047 722 3315 
Q 1072 3584 1716 3584 
Q 2034 3584 2315 3537 
Q 2597 3491 2834 3397 
z
" transform="scale(0.015625)"/>
       <path id="DejaVuSans-69" d="M 603 3500 
L 1178 3500 
L 1178 0 
L 603 0 
L 603 3500 
z
M 603 4863 
L 1178 4863 
L 1178 4134 
L 603 4134 
L 603 4863 
z
" transform="scale(0.015625)"/>
       <path id="DejaVuSans-74" d="M 1172 4494 
L 1172 3500 
L 2356 3500 
L 2356 3053 
L 1172 3053 
L 1172 1153 
Q 1172 725 1289 603 
Q 1406 481 1766 481 
L 2356 481 
L 2356 0 
L 1766 0 
Q 1100 0 847 248 
Q 594 497 594 1153 
L 594 3053 
L 172 3053 
L 172 3500 
L 594 3500 
L 594 4494 
L 1172 4494 
z
" transform="scale(0.015625)"/>
       <path id="DejaVuSans-79" d="M 2059 -325 
Q 1816 -950 1584 -1140 
Q 1353 -1331 966 -1331 
L 506 -1331 
L 506 -850 
L 844 -850 
Q 1081 -850 1212 -737 
Q 1344 -625 1503 -206 
L 1606 56 
L 191 3500 
L 800 3500 
L 1894 763 
L 2988 3500 
L 3597 3500 
L 2059 -325 
z
" transform="scale(0.015625)"/>
      </defs>
      <use xlink:href="#DejaVuSans-44"/>
      <use xlink:href="#DejaVuSans-65" transform="translate(77.001953 0)"/>
      <use xlink:href="#DejaVuSans-6e" transform="translate(138.525391 0)"/>
      <use xlink:href="#DejaVuSans-73" transform="translate(201.904297 0)"/>
      <use xlink:href="#DejaVuSans-69" transform="translate(254.003906 0)"/>
      <use xlink:href="#DejaVuSans-74" transform="translate(281.787109 0)"/>
      <use xlink:href="#DejaVuSans-79" transform="translate(320.996094 0)"/>
     </g>
    </g>
   </g>
   <g id="patch_63">
    <path d="M 48.885 248.2 
L 48.885 64.08 
" style="fill: none; stroke: #000000; stroke-width: 0.8; stroke-linejoin: miter; stroke-linecap: square"/>
   </g>
   <g id="patch_64">
    <path d="M 232.266631 248.2 
L 232.266631 64.08 
" style="fill: none; stroke: #000000; stroke-width: 0.8; stroke-linejoin: miter; stroke-linecap: square"/>
   </g>
   <g id="patch_65">
    <path d="M 48.885 248.2 
L 232.266631 248.2 
" style="fill: none; stroke: #000000; stroke-width: 0.8; stroke-linejoin: miter; stroke-linecap: square"/>
   </g>
   <g id="patch_66">
    <path d="M 48.885 64.08 
L 232.266631 64.08 
" style="fill: none; stroke: #000000; stroke-width: 0.8; stroke-linejoin: miter; stroke-linecap: square"/>
   </g>
   <g id="text_14">
    <!-- current_s1 -->
    <g transform="translate(108.991441 58.08) scale(0.12 -0.12)">
     <defs>
      <path id="DejaVuSans-63" d="M 3122 3366 
L 3122 2828 
Q 2878 2963 2633 3030 
Q 2388 3097 2138 3097 
Q 1578 3097 1268 2742 
Q 959 2388 959 1747 
Q 959 1106 1268 751 
Q 1578 397 2138 397 
Q 2388 397 2633 464 
Q 2878 531 3122 666 
L 3122 134 
Q 2881 22 2623 -34 
Q 2366 -91 2075 -91 
Q 1284 -91 818 406 
Q 353 903 353 1747 
Q 353 2603 823 3093 
Q 1294 3584 2113 3584 
Q 2378 3584 2631 3529 
Q 2884 3475 3122 3366 
z
" transform="scale(0.015625)"/>
      <path id="DejaVuSans-72" d="M 2631 2963 
Q 2534 3019 2420 3045 
Q 2306 3072 2169 3072 
Q 1681 3072 1420 2755 
Q 1159 2438 1159 1844 
L 1159 0 
L 581 0 
L 581 3500 
L 1159 3500 
L 1159 2956 
Q 1341 3275 1631 3429 
Q 1922 3584 2338 3584 
Q 2397 3584 2469 3576 
Q 2541 3569 2628 3553 
L 2631 2963 
z
" transform="scale(0.015625)"/>
      <path id="DejaVuSans-5f" d="M 3263 -1063 
L 3263 -1509 
L -63 -1509 
L -63 -1063 
L 3263 -1063 
z
" transform="scale(0.015625)"/>
     </defs>
     <use xlink:href="#DejaVuSans-63"/>
     <use xlink:href="#DejaVuSans-75" transform="translate(54.980469 0)"/>
     <use xlink:href="#DejaVuSans-72" transform="translate(118.359375 0)"/>
     <use xlink:href="#DejaVuSans-72" transform="translate(157.722656 0)"/>
     <use xlink:href="#DejaVuSans-65" transform="translate(196.585938 0)"/>
     <use xlink:href="#DejaVuSans-6e" transform="translate(258.109375 0)"/>
     <use xlink:href="#DejaVuSans-74" transform="translate(321.488281 0)"/>
     <use xlink:href="#DejaVuSans-5f" transform="translate(360.697266 0)"/>
     <use xlink:href="#DejaVuSans-73" transform="translate(410.697266 0)"/>
     <use xlink:href="#DejaVuSans-31" transform="translate(462.796875 0)"/>
    </g>
   </g>
   <g id="legend_1">
    <g id="patch_67">
     <path d="M 164.6021 97.700625 
L 225.966631 97.700625 
Q 227.766631 97.700625 227.766631 95.900625 
L 227.766631 70.38 
Q 227.766631 68.58 225.966631 68.58 
L 164.6021 68.58 
Q 162.8021 68.58 162.8021 70.38 
L 162.8021 95.900625 
Q 162.8021 97.700625 164.6021 97.700625 
z
" style="fill: #ffffff; opacity: 0.8; stroke: #cccccc; stroke-linejoin: miter"/>
    </g>
    <g id="patch_68">
     <path d="M 166.4021 79.018594 
L 184.4021 79.018594 
L 184.4021 72.718594 
L 166.4021 72.718594 
z
" style="fill: #1f77b4; opacity: 0.6"/>
    </g>
    <g id="text_15">
     <!-- Normal -->
     <g transform="translate(191.6021 79.018594) scale(0.09 -0.09)">
      <defs>
       <path id="DejaVuSans-4e" d="M 628 4666 
L 1478 4666 
L 3547 763 
L 3547 4666 
L 4159 4666 
L 4159 0 
L 3309 0 
L 1241 3903 
L 1241 0 
L 628 0 
L 628 4666 
z
" transform="scale(0.015625)"/>
       <path id="DejaVuSans-6f" d="M 1959 3097 
Q 1497 3097 1228 2736 
Q 959 2375 959 1747 
Q 959 1119 1226 758 
Q 1494 397 1959 397 
Q 2419 397 2687 759 
Q 2956 1122 2956 1747 
Q 2956 2369 2687 2733 
Q 2419 3097 1959 3097 
z
M 1959 3584 
Q 2709 3584 3137 3096 
Q 3566 2609 3566 1747 
Q 3566 888 3137 398 
Q 2709 -91 1959 -91 
Q 1206 -91 779 398 
Q 353 888 353 1747 
Q 353 2609 779 3096 
Q 1206 3584 1959 3584 
z
" transform="scale(0.015625)"/>
       <path id="DejaVuSans-6d" d="M 3328 2828 
Q 3544 3216 3844 3400 
Q 4144 3584 4550 3584 
Q 5097 3584 5394 3201 
Q 5691 2819 5691 2113 
L 5691 0 
L 5113 0 
L 5113 2094 
Q 5113 2597 4934 2840 
Q 4756 3084 4391 3084 
Q 3944 3084 3684 2787 
Q 3425 2491 3425 1978 
L 3425 0 
L 2847 0 
L 2847 2094 
Q 2847 2600 2669 2842 
Q 2491 3084 2119 3084 
Q 1678 3084 1418 2786 
Q 1159 2488 1159 1978 
L 1159 0 
L 581 0 
L 581 3500 
L 1159 3500 
L 1159 2956 
Q 1356 3278 1631 3431 
Q 1906 3584 2284 3584 
Q 2666 3584 2933 3390 
Q 3200 3197 3328 2828 
z
" transform="scale(0.015625)"/>
      </defs>
      <use xlink:href="#DejaVuSans-4e"/>
      <use xlink:href="#DejaVuSans-6f" transform="translate(74.804688 0)"/>
      <use xlink:href="#DejaVuSans-72" transform="translate(135.986328 0)"/>
      <use xlink:href="#DejaVuSans-6d" transform="translate(175.349609 0)"/>
      <use xlink:href="#DejaVuSans-61" transform="translate(272.761719 0)"/>
      <use xlink:href="#DejaVuSans-6c" transform="translate(334.041016 0)"/>
     </g>
    </g>
    <g id="patch_69">
     <path d="M 166.4021 92.228906 
L 184.4021 92.228906 
L 184.4021 85.928906 
L 166.4021 85.928906 
z
" style="fill: #ff7f0e; opacity: 0.6"/>
    </g>
    <g id="text_16">
     <!-- Fault -->
     <g transform="translate(191.6021 92.228906) scale(0.09 -0.09)">
      <defs>
       <path id="DejaVuSans-46" d="M 628 4666 
L 3309 4666 
L 3309 4134 
L 1259 4134 
L 1259 2759 
L 3109 2759 
L 3109 2228 
L 1259 2228 
L 1259 0 
L 628 0 
L 628 4666 
z
" transform="scale(0.015625)"/>
      </defs>
      <use xlink:href="#DejaVuSans-46"/>
      <use xlink:href="#DejaVuSans-61" transform="translate(48.394531 0)"/>
      <use xlink:href="#DejaVuSans-75" transform="translate(109.673828 0)"/>
      <use xlink:href="#DejaVuSans-6c" transform="translate(173.052734 0)"/>
      <use xlink:href="#DejaVuSans-74" transform="translate(200.835938 0)"/>
     </g>
    </g>
   </g>
  </g>
  <g id="axes_2">
   <g id="patch_70">
    <path d="M 284.906631 248.2 
L 468.288262 248.2 
L 468.288262 64.08 
L 284.906631 64.08 
z
" style="fill: #ffffff"/>
   </g>
   <g id="patch_71">
    <path d="M 293.24216 248.2 
L 295.697985 248.2 
L 295.697985 246.884035 
L 293.24216 246.884035 
z
" clip-path="url(#p832a921bae)" style="fill: #1f77b4; opacity: 0.6"/>
   </g>
   <g id="patch_72">
    <path d="M 295.697985 248.2 
L 298.153811 248.2 
L 298.153811 245.239078 
L 295.697985 245.239078 
z
" clip-path="url(#p832a921bae)" style="fill: #1f77b4; opacity: 0.6"/>
   </g>
   <g id="patch_73">
    <path d="M 298.153811 248.2 
L 300.609636 248.2 
L 300.609636 236.356312 
L 298.153811 236.356312 
z
" clip-path="url(#p832a921bae)" style="fill: #1f77b4; opacity: 0.6"/>
   </g>
   <g id="patch_74">
    <path d="M 300.609636 248.2 
L 303.065462 248.2 
L 303.065462 212.010953 
L 300.609636 212.010953 
z
" clip-path="url(#p832a921bae)" style="fill: #1f77b4; opacity: 0.6"/>
   </g>
   <g id="patch_75">
    <path d="M 303.065462 248.2 
L 305.521287 248.2 
L 305.521287 182.730725 
L 303.065462 182.730725 
z
" clip-path="url(#p832a921bae)" style="fill: #1f77b4; opacity: 0.6"/>
   </g>
   <g id="patch_76">
    <path d="M 305.521287 248.2 
L 307.977113 248.2 
L 307.977113 145.225712 
L 305.521287 145.225712 
z
" clip-path="url(#p832a921bae)" style="fill: #1f77b4; opacity: 0.6"/>
   </g>
   <g id="patch_77">
    <path d="M 307.977113 248.2 
L 310.432938 248.2 
L 310.432938 75.808541 
L 307.977113 75.808541 
z
" clip-path="url(#p832a921bae)" style="fill: #1f77b4; opacity: 0.6"/>
   </g>
   <g id="patch_78">
    <path d="M 310.432938 248.2 
L 312.888764 248.2 
L 312.888764 72.847619 
L 310.432938 72.847619 
z
" clip-path="url(#p832a921bae)" style="fill: #1f77b4; opacity: 0.6"/>
   </g>
   <g id="patch_79">
    <path d="M 312.888764 248.2 
L 315.344589 248.2 
L 315.344589 92.258108 
L 312.888764 92.258108 
z
" clip-path="url(#p832a921bae)" style="fill: #1f77b4; opacity: 0.6"/>
   </g>
   <g id="patch_80">
    <path d="M 315.344589 248.2 
L 317.800415 248.2 
L 317.800415 127.789172 
L 315.344589 127.789172 
z
" clip-path="url(#p832a921bae)" style="fill: #1f77b4; opacity: 0.6"/>
   </g>
   <g id="patch_81">
    <path d="M 317.800415 248.2 
L 320.25624 248.2 
L 320.25624 167.926115 
L 317.800415 167.926115 
z
" clip-path="url(#p832a921bae)" style="fill: #1f77b4; opacity: 0.6"/>
   </g>
   <g id="patch_82">
    <path d="M 320.25624 248.2 
L 322.712066 248.2 
L 322.712066 214.642884 
L 320.25624 214.642884 
z
" clip-path="url(#p832a921bae)" style="fill: #1f77b4; opacity: 0.6"/>
   </g>
   <g id="patch_83">
    <path d="M 322.712066 248.2 
L 325.167891 248.2 
L 325.167891 235.040347 
L 322.712066 235.040347 
z
" clip-path="url(#p832a921bae)" style="fill: #1f77b4; opacity: 0.6"/>
   </g>
   <g id="patch_84">
    <path d="M 325.167891 248.2 
L 327.623717 248.2 
L 327.623717 243.594121 
L 325.167891 243.594121 
z
" clip-path="url(#p832a921bae)" style="fill: #1f77b4; opacity: 0.6"/>
   </g>
   <g id="patch_85">
    <path d="M 327.623717 248.2 
L 330.079542 248.2 
L 330.079542 246.555043 
L 327.623717 246.555043 
z
" clip-path="url(#p832a921bae)" style="fill: #1f77b4; opacity: 0.6"/>
   </g>
   <g id="patch_86">
    <path d="M 330.079542 248.2 
L 332.535368 248.2 
L 332.535368 247.213026 
L 330.079542 247.213026 
z
" clip-path="url(#p832a921bae)" style="fill: #1f77b4; opacity: 0.6"/>
   </g>
   <g id="patch_87">
    <path d="M 332.535368 248.2 
L 334.991193 248.2 
L 334.991193 248.2 
L 332.535368 248.2 
z
" clip-path="url(#p832a921bae)" style="fill: #1f77b4; opacity: 0.6"/>
   </g>
   <g id="patch_88">
    <path d="M 334.991193 248.2 
L 337.447019 248.2 
L 337.447019 247.542017 
L 334.991193 247.542017 
z
" clip-path="url(#p832a921bae)" style="fill: #1f77b4; opacity: 0.6"/>
   </g>
   <g id="patch_89">
    <path d="M 337.447019 248.2 
L 339.902844 248.2 
L 339.902844 247.213026 
L 337.447019 247.213026 
z
" clip-path="url(#p832a921bae)" style="fill: #1f77b4; opacity: 0.6"/>
   </g>
   <g id="patch_90">
    <path d="M 339.902844 248.2 
L 342.35867 248.2 
L 342.35867 248.2 
L 339.902844 248.2 
z
" clip-path="url(#p832a921bae)" style="fill: #1f77b4; opacity: 0.6"/>
   </g>
   <g id="patch_91">
    <path d="M 342.35867 248.2 
L 344.814495 248.2 
L 344.814495 247.542017 
L 342.35867 247.542017 
z
" clip-path="url(#p832a921bae)" style="fill: #1f77b4; opacity: 0.6"/>
   </g>
   <g id="patch_92">
    <path d="M 344.814495 248.2 
L 347.270321 248.2 
L 347.270321 246.884035 
L 344.814495 246.884035 
z
" clip-path="url(#p832a921bae)" style="fill: #1f77b4; opacity: 0.6"/>
   </g>
   <g id="patch_93">
    <path d="M 347.270321 248.2 
L 349.726146 248.2 
L 349.726146 246.555043 
L 347.270321 246.555043 
z
" clip-path="url(#p832a921bae)" style="fill: #1f77b4; opacity: 0.6"/>
   </g>
   <g id="patch_94">
    <path d="M 349.726146 248.2 
L 352.181972 248.2 
L 352.181972 248.2 
L 349.726146 248.2 
z
" clip-path="url(#p832a921bae)" style="fill: #1f77b4; opacity: 0.6"/>
   </g>
   <g id="patch_95">
    <path d="M 352.181972 248.2 
L 354.637797 248.2 
L 354.637797 247.542017 
L 352.181972 247.542017 
z
" clip-path="url(#p832a921bae)" style="fill: #1f77b4; opacity: 0.6"/>
   </g>
   <g id="patch_96">
    <path d="M 354.637797 248.2 
L 357.093623 248.2 
L 357.093623 247.542017 
L 354.637797 247.542017 
z
" clip-path="url(#p832a921bae)" style="fill: #1f77b4; opacity: 0.6"/>
   </g>
   <g id="patch_97">
    <path d="M 357.093623 248.2 
L 359.549448 248.2 
L 359.549448 247.871009 
L 357.093623 247.871009 
z
" clip-path="url(#p832a921bae)" style="fill: #1f77b4; opacity: 0.6"/>
   </g>
   <g id="patch_98">
    <path d="M 359.549448 248.2 
L 362.005274 248.2 
L 362.005274 247.871009 
L 359.549448 247.871009 
z
" clip-path="url(#p832a921bae)" style="fill: #1f77b4; opacity: 0.6"/>
   </g>
   <g id="patch_99">
    <path d="M 362.005274 248.2 
L 364.4611 248.2 
L 364.4611 247.871009 
L 362.005274 247.871009 
z
" clip-path="url(#p832a921bae)" style="fill: #1f77b4; opacity: 0.6"/>
   </g>
   <g id="patch_100">
    <path d="M 364.4611 248.2 
L 366.916925 248.2 
L 366.916925 247.871009 
L 364.4611 247.871009 
z
" clip-path="url(#p832a921bae)" style="fill: #1f77b4; opacity: 0.6"/>
   </g>
   <g id="patch_101">
    <path d="M 294.655687 248.2 
L 300.165589 248.2 
L 300.165589 242.921134 
L 294.655687 242.921134 
z
" clip-path="url(#p832a921bae)" style="fill: #ff7f0e; opacity: 0.6"/>
   </g>
   <g id="patch_102">
    <path d="M 300.165589 248.2 
L 305.67549 248.2 
L 305.67549 210.368128 
L 300.165589 210.368128 
z
" clip-path="url(#p832a921bae)" style="fill: #ff7f0e; opacity: 0.6"/>
   </g>
   <g id="patch_103">
    <path d="M 305.67549 248.2 
L 311.185392 248.2 
L 311.185392 136.464006 
L 305.67549 136.464006 
z
" clip-path="url(#p832a921bae)" style="fill: #ff7f0e; opacity: 0.6"/>
   </g>
   <g id="patch_104">
    <path d="M 311.185392 248.2 
L 316.695293 248.2 
L 316.695293 124.586558 
L 311.185392 124.586558 
z
" clip-path="url(#p832a921bae)" style="fill: #ff7f0e; opacity: 0.6"/>
   </g>
   <g id="patch_105">
    <path d="M 316.695293 248.2 
L 322.205195 248.2 
L 322.205195 194.971436 
L 316.695293 194.971436 
z
" clip-path="url(#p832a921bae)" style="fill: #ff7f0e; opacity: 0.6"/>
   </g>
   <g id="patch_106">
    <path d="M 322.205195 248.2 
L 327.715096 248.2 
L 327.715096 235.882646 
L 322.205195 235.882646 
z
" clip-path="url(#p832a921bae)" style="fill: #ff7f0e; opacity: 0.6"/>
   </g>
   <g id="patch_107">
    <path d="M 327.715096 248.2 
L 333.224998 248.2 
L 333.224998 241.82137 
L 327.715096 241.82137 
z
" clip-path="url(#p832a921bae)" style="fill: #ff7f0e; opacity: 0.6"/>
   </g>
   <g id="patch_108">
    <path d="M 333.224998 248.2 
L 338.734899 248.2 
L 338.734899 245.340614 
L 333.224998 245.340614 
z
" clip-path="url(#p832a921bae)" style="fill: #ff7f0e; opacity: 0.6"/>
   </g>
   <g id="patch_109">
    <path d="M 338.734899 248.2 
L 344.244801 248.2 
L 344.244801 245.78052 
L 338.734899 245.78052 
z
" clip-path="url(#p832a921bae)" style="fill: #ff7f0e; opacity: 0.6"/>
   </g>
   <g id="patch_110">
    <path d="M 344.244801 248.2 
L 349.754703 248.2 
L 349.754703 246.880284 
L 344.244801 246.880284 
z
" clip-path="url(#p832a921bae)" style="fill: #ff7f0e; opacity: 0.6"/>
   </g>
   <g id="patch_111">
    <path d="M 349.754703 248.2 
L 355.264604 248.2 
L 355.264604 245.78052 
L 349.754703 245.78052 
z
" clip-path="url(#p832a921bae)" style="fill: #ff7f0e; opacity: 0.6"/>
   </g>
   <g id="patch_112">
    <path d="M 355.264604 248.2 
L 360.774506 248.2 
L 360.774506 244.680756 
L 355.264604 244.680756 
z
" clip-path="url(#p832a921bae)" style="fill: #ff7f0e; opacity: 0.6"/>
   </g>
   <g id="patch_113">
    <path d="M 360.774506 248.2 
L 366.284407 248.2 
L 366.284407 244.460803 
L 360.774506 244.460803 
z
" clip-path="url(#p832a921bae)" style="fill: #ff7f0e; opacity: 0.6"/>
   </g>
   <g id="patch_114">
    <path d="M 366.284407 248.2 
L 371.794309 248.2 
L 371.794309 243.800945 
L 366.284407 243.800945 
z
" clip-path="url(#p832a921bae)" style="fill: #ff7f0e; opacity: 0.6"/>
   </g>
   <g id="patch_115">
    <path d="M 371.794309 248.2 
L 377.30421 248.2 
L 377.30421 245.120662 
L 371.794309 245.120662 
z
" clip-path="url(#p832a921bae)" style="fill: #ff7f0e; opacity: 0.6"/>
   </g>
   <g id="patch_116">
    <path d="M 377.30421 248.2 
L 382.814112 248.2 
L 382.814112 246.440378 
L 377.30421 246.440378 
z
" clip-path="url(#p832a921bae)" style="fill: #ff7f0e; opacity: 0.6"/>
   </g>
   <g id="patch_117">
    <path d="M 382.814112 248.2 
L 388.324013 248.2 
L 388.324013 245.120662 
L 382.814112 245.120662 
z
" clip-path="url(#p832a921bae)" style="fill: #ff7f0e; opacity: 0.6"/>
   </g>
   <g id="patch_118">
    <path d="M 388.324013 248.2 
L 393.833915 248.2 
L 393.833915 246.440378 
L 388.324013 246.440378 
z
" clip-path="url(#p832a921bae)" style="fill: #ff7f0e; opacity: 0.6"/>
   </g>
   <g id="patch_119">
    <path d="M 393.833915 248.2 
L 399.343816 248.2 
L 399.343816 246.000473 
L 393.833915 246.000473 
z
" clip-path="url(#p832a921bae)" style="fill: #ff7f0e; opacity: 0.6"/>
   </g>
   <g id="patch_120">
    <path d="M 399.343816 248.2 
L 404.853718 248.2 
L 404.853718 245.120662 
L 399.343816 245.120662 
z
" clip-path="url(#p832a921bae)" style="fill: #ff7f0e; opacity: 0.6"/>
   </g>
   <g id="patch_121">
    <path d="M 404.853718 248.2 
L 410.363619 248.2 
L 410.363619 246.220425 
L 404.853718 246.220425 
z
" clip-path="url(#p832a921bae)" style="fill: #ff7f0e; opacity: 0.6"/>
   </g>
   <g id="patch_122">
    <path d="M 410.363619 248.2 
L 415.873521 248.2 
L 415.873521 245.78052 
L 410.363619 245.78052 
z
" clip-path="url(#p832a921bae)" style="fill: #ff7f0e; opacity: 0.6"/>
   </g>
   <g id="patch_123">
    <path d="M 415.873521 248.2 
L 421.383423 248.2 
L 421.383423 245.340614 
L 415.873521 245.340614 
z
" clip-path="url(#p832a921bae)" style="fill: #ff7f0e; opacity: 0.6"/>
   </g>
   <g id="patch_124">
    <path d="M 421.383423 248.2 
L 426.893324 248.2 
L 426.893324 245.560567 
L 421.383423 245.560567 
z
" clip-path="url(#p832a921bae)" style="fill: #ff7f0e; opacity: 0.6"/>
   </g>
   <g id="patch_125">
    <path d="M 426.893324 248.2 
L 432.403226 248.2 
L 432.403226 244.460803 
L 426.893324 244.460803 
z
" clip-path="url(#p832a921bae)" style="fill: #ff7f0e; opacity: 0.6"/>
   </g>
   <g id="patch_126">
    <path d="M 432.403226 248.2 
L 437.913127 248.2 
L 437.913127 245.78052 
L 432.403226 245.78052 
z
" clip-path="url(#p832a921bae)" style="fill: #ff7f0e; opacity: 0.6"/>
   </g>
   <g id="patch_127">
    <path d="M 437.913127 248.2 
L 443.423029 248.2 
L 443.423029 244.020898 
L 437.913127 244.020898 
z
" clip-path="url(#p832a921bae)" style="fill: #ff7f0e; opacity: 0.6"/>
   </g>
   <g id="patch_128">
    <path d="M 443.423029 248.2 
L 448.93293 248.2 
L 448.93293 245.78052 
L 443.423029 245.78052 
z
" clip-path="url(#p832a921bae)" style="fill: #ff7f0e; opacity: 0.6"/>
   </g>
   <g id="patch_129">
    <path d="M 448.93293 248.2 
L 454.442832 248.2 
L 454.442832 245.340614 
L 448.93293 245.340614 
z
" clip-path="url(#p832a921bae)" style="fill: #ff7f0e; opacity: 0.6"/>
   </g>
   <g id="patch_130">
    <path d="M 454.442832 248.2 
L 459.952733 248.2 
L 459.952733 219.826096 
L 454.442832 219.826096 
z
" clip-path="url(#p832a921bae)" style="fill: #ff7f0e; opacity: 0.6"/>
   </g>
   <g id="matplotlib.axis_3">
    <g id="xtick_4">
     <g id="line2d_12">
      <g>
       <use xlink:href="#m000b5d50b2" x="288.61607" y="248.2" style="stroke: #000000; stroke-width: 0.8"/>
      </g>
     </g>
     <g id="text_17">
      <!-- 50 -->
      <g transform="translate(282.88982 262.038594) scale(0.09 -0.09)">
       <use xlink:href="#DejaVuSans-35"/>
       <use xlink:href="#DejaVuSans-30" transform="translate(63.623047 0)"/>
      </g>
     </g>
    </g>
    <g id="xtick_5">
     <g id="line2d_13">
      <g>
       <use xlink:href="#m000b5d50b2" x="331.450236" y="248.2" style="stroke: #000000; stroke-width: 0.8"/>
      </g>
     </g>
     <g id="text_18">
      <!-- 60 -->
      <g transform="translate(325.723986 262.038594) scale(0.09 -0.09)">
       <defs>
        <path id="DejaVuSans-36" d="M 2113 2584 
Q 1688 2584 1439 2293 
Q 1191 2003 1191 1497 
Q 1191 994 1439 701 
Q 1688 409 2113 409 
Q 2538 409 2786 701 
Q 3034 994 3034 1497 
Q 3034 2003 2786 2293 
Q 2538 2584 2113 2584 
z
M 3366 4563 
L 3366 3988 
Q 3128 4100 2886 4159 
Q 2644 4219 2406 4219 
Q 1781 4219 1451 3797 
Q 1122 3375 1075 2522 
Q 1259 2794 1537 2939 
Q 1816 3084 2150 3084 
Q 2853 3084 3261 2657 
Q 3669 2231 3669 1497 
Q 3669 778 3244 343 
Q 2819 -91 2113 -91 
Q 1303 -91 875 529 
Q 447 1150 447 2328 
Q 447 3434 972 4092 
Q 1497 4750 2381 4750 
Q 2619 4750 2861 4703 
Q 3103 4656 3366 4563 
z
" transform="scale(0.015625)"/>
       </defs>
       <use xlink:href="#DejaVuSans-36"/>
       <use xlink:href="#DejaVuSans-30" transform="translate(63.623047 0)"/>
      </g>
     </g>
    </g>
    <g id="xtick_6">
     <g id="line2d_14">
      <g>
       <use xlink:href="#m000b5d50b2" x="374.284402" y="248.2" style="stroke: #000000; stroke-width: 0.8"/>
      </g>
     </g>
     <g id="text_19">
      <!-- 70 -->
      <g transform="translate(368.558152 262.038594) scale(0.09 -0.09)">
       <use xlink:href="#DejaVuSans-37"/>
       <use xlink:href="#DejaVuSans-30" transform="translate(63.623047 0)"/>
      </g>
     </g>
    </g>
    <g id="xtick_7">
     <g id="line2d_15">
      <g>
       <use xlink:href="#m000b5d50b2" x="417.118567" y="248.2" style="stroke: #000000; stroke-width: 0.8"/>
      </g>
     </g>
     <g id="text_20">
      <!-- 80 -->
      <g transform="translate(411.392317 262.038594) scale(0.09 -0.09)">
       <defs>
        <path id="DejaVuSans-38" d="M 2034 2216 
Q 1584 2216 1326 1975 
Q 1069 1734 1069 1313 
Q 1069 891 1326 650 
Q 1584 409 2034 409 
Q 2484 409 2743 651 
Q 3003 894 3003 1313 
Q 3003 1734 2745 1975 
Q 2488 2216 2034 2216 
z
M 1403 2484 
Q 997 2584 770 2862 
Q 544 3141 544 3541 
Q 544 4100 942 4425 
Q 1341 4750 2034 4750 
Q 2731 4750 3128 4425 
Q 3525 4100 3525 3541 
Q 3525 3141 3298 2862 
Q 3072 2584 2669 2484 
Q 3125 2378 3379 2068 
Q 3634 1759 3634 1313 
Q 3634 634 3220 271 
Q 2806 -91 2034 -91 
Q 1263 -91 848 271 
Q 434 634 434 1313 
Q 434 1759 690 2068 
Q 947 2378 1403 2484 
z
M 1172 3481 
Q 1172 3119 1398 2916 
Q 1625 2713 2034 2713 
Q 2441 2713 2670 2916 
Q 2900 3119 2900 3481 
Q 2900 3844 2670 4047 
Q 2441 4250 2034 4250 
Q 1625 4250 1398 4047 
Q 1172 3844 1172 3481 
z
" transform="scale(0.015625)"/>
       </defs>
       <use xlink:href="#DejaVuSans-38"/>
       <use xlink:href="#DejaVuSans-30" transform="translate(63.623047 0)"/>
      </g>
     </g>
    </g>
    <g id="xtick_8">
     <g id="line2d_16">
      <g>
       <use xlink:href="#m000b5d50b2" x="459.952733" y="248.2" style="stroke: #000000; stroke-width: 0.8"/>
      </g>
     </g>
     <g id="text_21">
      <!-- 90 -->
      <g transform="translate(454.226483 262.038594) scale(0.09 -0.09)">
       <defs>
        <path id="DejaVuSans-39" d="M 703 97 
L 703 672 
Q 941 559 1184 500 
Q 1428 441 1663 441 
Q 2288 441 2617 861 
Q 2947 1281 2994 2138 
Q 2813 1869 2534 1725 
Q 2256 1581 1919 1581 
Q 1219 1581 811 2004 
Q 403 2428 403 3163 
Q 403 3881 828 4315 
Q 1253 4750 1959 4750 
Q 2769 4750 3195 4129 
Q 3622 3509 3622 2328 
Q 3622 1225 3098 567 
Q 2575 -91 1691 -91 
Q 1453 -91 1209 -44 
Q 966 3 703 97 
z
M 1959 2075 
Q 2384 2075 2632 2365 
Q 2881 2656 2881 3163 
Q 2881 3666 2632 3958 
Q 2384 4250 1959 4250 
Q 1534 4250 1286 3958 
Q 1038 3666 1038 3163 
Q 1038 2656 1286 2365 
Q 1534 2075 1959 2075 
z
" transform="scale(0.015625)"/>
       </defs>
       <use xlink:href="#DejaVuSans-39"/>
       <use xlink:href="#DejaVuSans-30" transform="translate(63.623047 0)"/>
      </g>
     </g>
    </g>
    <g id="text_22">
     <!-- Value -->
     <g transform="translate(361.493072 276.268594) scale(0.11 -0.11)">
      <use xlink:href="#DejaVuSans-56"/>
      <use xlink:href="#DejaVuSans-61" transform="translate(60.658203 0)"/>
      <use xlink:href="#DejaVuSans-6c" transform="translate(121.9375 0)"/>
      <use xlink:href="#DejaVuSans-75" transform="translate(149.720703 0)"/>
      <use xlink:href="#DejaVuSans-65" transform="translate(213.099609 0)"/>
     </g>
    </g>
   </g>
   <g id="matplotlib.axis_4">
    <g id="ytick_9">
     <g id="line2d_17">
      <g>
       <use xlink:href="#m7d2c34a6a4" x="284.906631" y="248.2" style="stroke: #000000; stroke-width: 0.8"/>
      </g>
     </g>
     <g id="text_23">
      <!-- 0.00 -->
      <g transform="translate(257.867569 251.619297) scale(0.09 -0.09)">
       <use xlink:href="#DejaVuSans-30"/>
       <use xlink:href="#DejaVuSans-2e" transform="translate(63.623047 0)"/>
       <use xlink:href="#DejaVuSans-30" transform="translate(95.410156 0)"/>
       <use xlink:href="#DejaVuSans-30" transform="translate(159.033203 0)"/>
      </g>
     </g>
    </g>
    <g id="ytick_10">
     <g id="line2d_18">
      <g>
       <use xlink:href="#m7d2c34a6a4" x="284.906631" y="219.906745" style="stroke: #000000; stroke-width: 0.8"/>
      </g>
     </g>
     <g id="text_24">
      <!-- 0.05 -->
      <g transform="translate(257.867569 223.326042) scale(0.09 -0.09)">
       <use xlink:href="#DejaVuSans-30"/>
       <use xlink:href="#DejaVuSans-2e" transform="translate(63.623047 0)"/>
       <use xlink:href="#DejaVuSans-30" transform="translate(95.410156 0)"/>
       <use xlink:href="#DejaVuSans-35" transform="translate(159.033203 0)"/>
      </g>
     </g>
    </g>
    <g id="ytick_11">
     <g id="line2d_19">
      <g>
       <use xlink:href="#m7d2c34a6a4" x="284.906631" y="191.613491" style="stroke: #000000; stroke-width: 0.8"/>
      </g>
     </g>
     <g id="text_25">
      <!-- 0.10 -->
      <g transform="translate(257.867569 195.032787) scale(0.09 -0.09)">
       <use xlink:href="#DejaVuSans-30"/>
       <use xlink:href="#DejaVuSans-2e" transform="translate(63.623047 0)"/>
       <use xlink:href="#DejaVuSans-31" transform="translate(95.410156 0)"/>
       <use xlink:href="#DejaVuSans-30" transform="translate(159.033203 0)"/>
      </g>
     </g>
    </g>
    <g id="ytick_12">
     <g id="line2d_20">
      <g>
       <use xlink:href="#m7d2c34a6a4" x="284.906631" y="163.320236" style="stroke: #000000; stroke-width: 0.8"/>
      </g>
     </g>
     <g id="text_26">
      <!-- 0.15 -->
      <g transform="translate(257.867569 166.739533) scale(0.09 -0.09)">
       <use xlink:href="#DejaVuSans-30"/>
       <use xlink:href="#DejaVuSans-2e" transform="translate(63.623047 0)"/>
       <use xlink:href="#DejaVuSans-31" transform="translate(95.410156 0)"/>
       <use xlink:href="#DejaVuSans-35" transform="translate(159.033203 0)"/>
      </g>
     </g>
    </g>
    <g id="ytick_13">
     <g id="line2d_21">
      <g>
       <use xlink:href="#m7d2c34a6a4" x="284.906631" y="135.026981" style="stroke: #000000; stroke-width: 0.8"/>
      </g>
     </g>
     <g id="text_27">
      <!-- 0.20 -->
      <g transform="translate(257.867569 138.446278) scale(0.09 -0.09)">
       <use xlink:href="#DejaVuSans-30"/>
       <use xlink:href="#DejaVuSans-2e" transform="translate(63.623047 0)"/>
       <use xlink:href="#DejaVuSans-32" transform="translate(95.410156 0)"/>
       <use xlink:href="#DejaVuSans-30" transform="translate(159.033203 0)"/>
      </g>
     </g>
    </g>
    <g id="ytick_14">
     <g id="line2d_22">
      <g>
       <use xlink:href="#m7d2c34a6a4" x="284.906631" y="106.733726" style="stroke: #000000; stroke-width: 0.8"/>
      </g>
     </g>
     <g id="text_28">
      <!-- 0.25 -->
      <g transform="translate(257.867569 110.153023) scale(0.09 -0.09)">
       <use xlink:href="#DejaVuSans-30"/>
       <use xlink:href="#DejaVuSans-2e" transform="translate(63.623047 0)"/>
       <use xlink:href="#DejaVuSans-32" transform="translate(95.410156 0)"/>
       <use xlink:href="#DejaVuSans-35" transform="translate(159.033203 0)"/>
      </g>
     </g>
    </g>
    <g id="ytick_15">
     <g id="line2d_23">
      <g>
       <use xlink:href="#m7d2c34a6a4" x="284.906631" y="78.440472" style="stroke: #000000; stroke-width: 0.8"/>
      </g>
     </g>
     <g id="text_29">
      <!-- 0.30 -->
      <g transform="translate(257.867569 81.859769) scale(0.09 -0.09)">
       <defs>
        <path id="DejaVuSans-33" d="M 2597 2516 
Q 3050 2419 3304 2112 
Q 3559 1806 3559 1356 
Q 3559 666 3084 287 
Q 2609 -91 1734 -91 
Q 1441 -91 1130 -33 
Q 819 25 488 141 
L 488 750 
Q 750 597 1062 519 
Q 1375 441 1716 441 
Q 2309 441 2620 675 
Q 2931 909 2931 1356 
Q 2931 1769 2642 2001 
Q 2353 2234 1838 2234 
L 1294 2234 
L 1294 2753 
L 1863 2753 
Q 2328 2753 2575 2939 
Q 2822 3125 2822 3475 
Q 2822 3834 2567 4026 
Q 2313 4219 1838 4219 
Q 1578 4219 1281 4162 
Q 984 4106 628 3988 
L 628 4550 
Q 988 4650 1302 4700 
Q 1616 4750 1894 4750 
Q 2613 4750 3031 4423 
Q 3450 4097 3450 3541 
Q 3450 3153 3228 2886 
Q 3006 2619 2597 2516 
z
" transform="scale(0.015625)"/>
       </defs>
       <use xlink:href="#DejaVuSans-30"/>
       <use xlink:href="#DejaVuSans-2e" transform="translate(63.623047 0)"/>
       <use xlink:href="#DejaVuSans-33" transform="translate(95.410156 0)"/>
       <use xlink:href="#DejaVuSans-30" transform="translate(159.033203 0)"/>
      </g>
     </g>
    </g>
    <g id="text_30">
     <!-- Density -->
     <g transform="translate(251.579912 177.049453) rotate(-90) scale(0.11 -0.11)">
      <use xlink:href="#DejaVuSans-44"/>
      <use xlink:href="#DejaVuSans-65" transform="translate(77.001953 0)"/>
      <use xlink:href="#DejaVuSans-6e" transform="translate(138.525391 0)"/>
      <use xlink:href="#DejaVuSans-73" transform="translate(201.904297 0)"/>
      <use xlink:href="#DejaVuSans-69" transform="translate(254.003906 0)"/>
      <use xlink:href="#DejaVuSans-74" transform="translate(281.787109 0)"/>
      <use xlink:href="#DejaVuSans-79" transform="translate(320.996094 0)"/>
     </g>
    </g>
   </g>
   <g id="patch_131">
    <path d="M 284.906631 248.2 
L 284.906631 64.08 
" style="fill: none; stroke: #000000; stroke-width: 0.8; stroke-linejoin: miter; stroke-linecap: square"/>
   </g>
   <g id="patch_132">
    <path d="M 468.288262 248.2 
L 468.288262 64.08 
" style="fill: none; stroke: #000000; stroke-width: 0.8; stroke-linejoin: miter; stroke-linecap: square"/>
   </g>
   <g id="patch_133">
    <path d="M 284.906631 248.2 
L 468.288262 248.2 
" style="fill: none; stroke: #000000; stroke-width: 0.8; stroke-linejoin: miter; stroke-linecap: square"/>
   </g>
   <g id="patch_134">
    <path d="M 284.906631 64.08 
L 468.288262 64.08 
" style="fill: none; stroke: #000000; stroke-width: 0.8; stroke-linejoin: miter; stroke-linecap: square"/>
   </g>
   <g id="text_31">
    <!-- temp_s1 -->
    <g transform="translate(350.956822 58.08) scale(0.12 -0.12)">
     <defs>
      <path id="DejaVuSans-70" d="M 1159 525 
L 1159 -1331 
L 581 -1331 
L 581 3500 
L 1159 3500 
L 1159 2969 
Q 1341 3281 1617 3432 
Q 1894 3584 2278 3584 
Q 2916 3584 3314 3078 
Q 3713 2572 3713 1747 
Q 3713 922 3314 415 
Q 2916 -91 2278 -91 
Q 1894 -91 1617 61 
Q 1341 213 1159 525 
z
M 3116 1747 
Q 3116 2381 2855 2742 
Q 2594 3103 2138 3103 
Q 1681 3103 1420 2742 
Q 1159 2381 1159 1747 
Q 1159 1113 1420 752 
Q 1681 391 2138 391 
Q 2594 391 2855 752 
Q 3116 1113 3116 1747 
z
" transform="scale(0.015625)"/>
     </defs>
     <use xlink:href="#DejaVuSans-74"/>
     <use xlink:href="#DejaVuSans-65" transform="translate(39.208984 0)"/>
     <use xlink:href="#DejaVuSans-6d" transform="translate(100.732422 0)"/>
     <use xlink:href="#DejaVuSans-70" transform="translate(198.144531 0)"/>
     <use xlink:href="#DejaVuSans-5f" transform="translate(261.621094 0)"/>
     <use xlink:href="#DejaVuSans-73" transform="translate(311.621094 0)"/>
     <use xlink:href="#DejaVuSans-31" transform="translate(363.720703 0)"/>
    </g>
   </g>
  </g>
  <g id="axes_3">
   <g id="patch_135">
    <path d="M 520.928262 248.2 
L 704.309893 248.2 
L 704.309893 64.08 
L 520.928262 64.08 
z
" style="fill: #ffffff"/>
   </g>
   <g id="patch_136">
    <path d="M 529.263791 248.2 
L 532.716973 248.2 
L 532.716973 246.234481 
L 529.263791 246.234481 
z
" clip-path="url(#p255310922a)" style="fill: #1f77b4; opacity: 0.6"/>
   </g>
   <g id="patch_137">
    <path d="M 532.716973 248.2 
L 536.170156 248.2 
L 536.170156 229.106386 
L 532.716973 229.106386 
z
" clip-path="url(#p255310922a)" style="fill: #1f77b4; opacity: 0.6"/>
   </g>
   <g id="patch_138">
    <path d="M 536.170156 248.2 
L 539.623338 248.2 
L 539.623338 143.185123 
L 536.170156 143.185123 
z
" clip-path="url(#p255310922a)" style="fill: #1f77b4; opacity: 0.6"/>
   </g>
   <g id="patch_139">
    <path d="M 539.623338 248.2 
L 543.07652 248.2 
L 543.07652 72.847619 
L 539.623338 72.847619 
z
" clip-path="url(#p255310922a)" style="fill: #1f77b4; opacity: 0.6"/>
   </g>
   <g id="patch_140">
    <path d="M 543.07652 248.2 
L 546.529703 248.2 
L 546.529703 154.276267 
L 543.07652 154.276267 
z
" clip-path="url(#p255310922a)" style="fill: #1f77b4; opacity: 0.6"/>
   </g>
   <g id="patch_141">
    <path d="M 546.529703 248.2 
L 549.982885 248.2 
L 549.982885 227.842838 
L 546.529703 227.842838 
z
" clip-path="url(#p255310922a)" style="fill: #1f77b4; opacity: 0.6"/>
   </g>
   <g id="patch_142">
    <path d="M 549.982885 248.2 
L 553.436068 248.2 
L 553.436068 247.357635 
L 549.982885 247.357635 
z
" clip-path="url(#p255310922a)" style="fill: #1f77b4; opacity: 0.6"/>
   </g>
   <g id="patch_143">
    <path d="M 553.436068 248.2 
L 556.88925 248.2 
L 556.88925 248.059606 
L 553.436068 248.059606 
z
" clip-path="url(#p255310922a)" style="fill: #1f77b4; opacity: 0.6"/>
   </g>
   <g id="patch_144">
    <path d="M 556.88925 248.2 
L 560.342433 248.2 
L 560.342433 248.2 
L 556.88925 248.2 
z
" clip-path="url(#p255310922a)" style="fill: #1f77b4; opacity: 0.6"/>
   </g>
   <g id="patch_145">
    <path d="M 560.342433 248.2 
L 563.795615 248.2 
L 563.795615 247.919212 
L 560.342433 247.919212 
z
" clip-path="url(#p255310922a)" style="fill: #1f77b4; opacity: 0.6"/>
   </g>
   <g id="patch_146">
    <path d="M 563.795615 248.2 
L 567.248797 248.2 
L 567.248797 247.919212 
L 563.795615 247.919212 
z
" clip-path="url(#p255310922a)" style="fill: #1f77b4; opacity: 0.6"/>
   </g>
   <g id="patch_147">
    <path d="M 567.248797 248.2 
L 570.70198 248.2 
L 570.70198 248.2 
L 567.248797 248.2 
z
" clip-path="url(#p255310922a)" style="fill: #1f77b4; opacity: 0.6"/>
   </g>
   <g id="patch_148">
    <path d="M 570.70198 248.2 
L 574.155162 248.2 
L 574.155162 247.778817 
L 570.70198 247.778817 
z
" clip-path="url(#p255310922a)" style="fill: #1f77b4; opacity: 0.6"/>
   </g>
   <g id="patch_149">
    <path d="M 574.155162 248.2 
L 577.608345 248.2 
L 577.608345 248.059606 
L 574.155162 248.059606 
z
" clip-path="url(#p255310922a)" style="fill: #1f77b4; opacity: 0.6"/>
   </g>
   <g id="patch_150">
    <path d="M 577.608345 248.2 
L 581.061527 248.2 
L 581.061527 248.2 
L 577.608345 248.2 
z
" clip-path="url(#p255310922a)" style="fill: #1f77b4; opacity: 0.6"/>
   </g>
   <g id="patch_151">
    <path d="M 581.061527 248.2 
L 584.51471 248.2 
L 584.51471 248.059606 
L 581.061527 248.059606 
z
" clip-path="url(#p255310922a)" style="fill: #1f77b4; opacity: 0.6"/>
   </g>
   <g id="patch_152">
    <path d="M 584.51471 248.2 
L 587.967892 248.2 
L 587.967892 247.638423 
L 584.51471 247.638423 
z
" clip-path="url(#p255310922a)" style="fill: #1f77b4; opacity: 0.6"/>
   </g>
   <g id="patch_153">
    <path d="M 587.967892 248.2 
L 591.421074 248.2 
L 591.421074 247.919212 
L 587.967892 247.919212 
z
" clip-path="url(#p255310922a)" style="fill: #1f77b4; opacity: 0.6"/>
   </g>
   <g id="patch_154">
    <path d="M 591.421074 248.2 
L 594.874257 248.2 
L 594.874257 247.919212 
L 591.421074 247.919212 
z
" clip-path="url(#p255310922a)" style="fill: #1f77b4; opacity: 0.6"/>
   </g>
   <g id="patch_155">
    <path d="M 594.874257 248.2 
L 598.327439 248.2 
L 598.327439 247.919212 
L 594.874257 247.919212 
z
" clip-path="url(#p255310922a)" style="fill: #1f77b4; opacity: 0.6"/>
   </g>
   <g id="patch_156">
    <path d="M 598.327439 248.2 
L 601.780622 248.2 
L 601.780622 248.059606 
L 598.327439 248.059606 
z
" clip-path="url(#p255310922a)" style="fill: #1f77b4; opacity: 0.6"/>
   </g>
   <g id="patch_157">
    <path d="M 601.780622 248.2 
L 605.233804 248.2 
L 605.233804 247.778817 
L 601.780622 247.778817 
z
" clip-path="url(#p255310922a)" style="fill: #1f77b4; opacity: 0.6"/>
   </g>
   <g id="patch_158">
    <path d="M 605.233804 248.2 
L 608.686987 248.2 
L 608.686987 248.2 
L 605.233804 248.2 
z
" clip-path="url(#p255310922a)" style="fill: #1f77b4; opacity: 0.6"/>
   </g>
   <g id="patch_159">
    <path d="M 608.686987 248.2 
L 612.140169 248.2 
L 612.140169 248.059606 
L 608.686987 248.059606 
z
" clip-path="url(#p255310922a)" style="fill: #1f77b4; opacity: 0.6"/>
   </g>
   <g id="patch_160">
    <path d="M 612.140169 248.2 
L 615.593351 248.2 
L 615.593351 247.919212 
L 612.140169 247.919212 
z
" clip-path="url(#p255310922a)" style="fill: #1f77b4; opacity: 0.6"/>
   </g>
   <g id="patch_161">
    <path d="M 615.593351 248.2 
L 619.046534 248.2 
L 619.046534 248.2 
L 615.593351 248.2 
z
" clip-path="url(#p255310922a)" style="fill: #1f77b4; opacity: 0.6"/>
   </g>
   <g id="patch_162">
    <path d="M 619.046534 248.2 
L 622.499716 248.2 
L 622.499716 247.919212 
L 619.046534 247.919212 
z
" clip-path="url(#p255310922a)" style="fill: #1f77b4; opacity: 0.6"/>
   </g>
   <g id="patch_163">
    <path d="M 622.499716 248.2 
L 625.952899 248.2 
L 625.952899 247.919212 
L 622.499716 247.919212 
z
" clip-path="url(#p255310922a)" style="fill: #1f77b4; opacity: 0.6"/>
   </g>
   <g id="patch_164">
    <path d="M 625.952899 248.2 
L 629.406081 248.2 
L 629.406081 248.2 
L 625.952899 248.2 
z
" clip-path="url(#p255310922a)" style="fill: #1f77b4; opacity: 0.6"/>
   </g>
   <g id="patch_165">
    <path d="M 629.406081 248.2 
L 632.859264 248.2 
L 632.859264 247.919212 
L 629.406081 247.919212 
z
" clip-path="url(#p255310922a)" style="fill: #1f77b4; opacity: 0.6"/>
   </g>
   <g id="patch_166">
    <path d="M 531.633128 248.2 
L 537.111169 248.2 
L 537.111169 230.809743 
L 531.633128 230.809743 
z
" clip-path="url(#p255310922a)" style="fill: #ff7f0e; opacity: 0.6"/>
   </g>
   <g id="patch_167">
    <path d="M 537.111169 248.2 
L 542.58921 248.2 
L 542.58921 132.574701 
L 537.111169 132.574701 
z
" clip-path="url(#p255310922a)" style="fill: #ff7f0e; opacity: 0.6"/>
   </g>
   <g id="patch_168">
    <path d="M 542.58921 248.2 
L 548.067251 248.2 
L 548.067251 181.161222 
L 542.58921 181.161222 
z
" clip-path="url(#p255310922a)" style="fill: #ff7f0e; opacity: 0.6"/>
   </g>
   <g id="patch_169">
    <path d="M 548.067251 248.2 
L 553.545292 248.2 
L 553.545292 242.889998 
L 548.067251 242.889998 
z
" clip-path="url(#p255310922a)" style="fill: #ff7f0e; opacity: 0.6"/>
   </g>
   <g id="patch_170">
    <path d="M 553.545292 248.2 
L 559.023334 248.2 
L 559.023334 243.420998 
L 553.545292 243.420998 
z
" clip-path="url(#p255310922a)" style="fill: #ff7f0e; opacity: 0.6"/>
   </g>
   <g id="patch_171">
    <path d="M 559.023334 248.2 
L 564.501375 248.2 
L 564.501375 242.093497 
L 559.023334 242.093497 
z
" clip-path="url(#p255310922a)" style="fill: #ff7f0e; opacity: 0.6"/>
   </g>
   <g id="patch_172">
    <path d="M 564.501375 248.2 
L 569.979416 248.2 
L 569.979416 243.155498 
L 564.501375 243.155498 
z
" clip-path="url(#p255310922a)" style="fill: #ff7f0e; opacity: 0.6"/>
   </g>
   <g id="patch_173">
    <path d="M 569.979416 248.2 
L 575.457457 248.2 
L 575.457457 243.022748 
L 569.979416 243.022748 
z
" clip-path="url(#p255310922a)" style="fill: #ff7f0e; opacity: 0.6"/>
   </g>
   <g id="patch_174">
    <path d="M 575.457457 248.2 
L 580.935499 248.2 
L 580.935499 243.553748 
L 575.457457 243.553748 
z
" clip-path="url(#p255310922a)" style="fill: #ff7f0e; opacity: 0.6"/>
   </g>
   <g id="patch_175">
    <path d="M 580.935499 248.2 
L 586.41354 248.2 
L 586.41354 243.022748 
L 580.935499 243.022748 
z
" clip-path="url(#p255310922a)" style="fill: #ff7f0e; opacity: 0.6"/>
   </g>
   <g id="patch_176">
    <path d="M 586.41354 248.2 
L 591.891581 248.2 
L 591.891581 245.146749 
L 586.41354 245.146749 
z
" clip-path="url(#p255310922a)" style="fill: #ff7f0e; opacity: 0.6"/>
   </g>
   <g id="patch_177">
    <path d="M 591.891581 248.2 
L 597.369622 248.2 
L 597.369622 245.146749 
L 591.891581 245.146749 
z
" clip-path="url(#p255310922a)" style="fill: #ff7f0e; opacity: 0.6"/>
   </g>
   <g id="patch_178">
    <path d="M 597.369622 248.2 
L 602.847664 248.2 
L 602.847664 245.544999 
L 597.369622 245.544999 
z
" clip-path="url(#p255310922a)" style="fill: #ff7f0e; opacity: 0.6"/>
   </g>
   <g id="patch_179">
    <path d="M 602.847664 248.2 
L 608.325705 248.2 
L 608.325705 247.005249 
L 602.847664 247.005249 
z
" clip-path="url(#p255310922a)" style="fill: #ff7f0e; opacity: 0.6"/>
   </g>
   <g id="patch_180">
    <path d="M 608.325705 248.2 
L 613.803746 248.2 
L 613.803746 247.53625 
L 608.325705 247.53625 
z
" clip-path="url(#p255310922a)" style="fill: #ff7f0e; opacity: 0.6"/>
   </g>
   <g id="patch_181">
    <path d="M 613.803746 248.2 
L 619.281787 248.2 
L 619.281787 247.27075 
L 613.803746 247.27075 
z
" clip-path="url(#p255310922a)" style="fill: #ff7f0e; opacity: 0.6"/>
   </g>
   <g id="patch_182">
    <path d="M 619.281787 248.2 
L 624.759828 248.2 
L 624.759828 247.27075 
L 619.281787 247.27075 
z
" clip-path="url(#p255310922a)" style="fill: #ff7f0e; opacity: 0.6"/>
   </g>
   <g id="patch_183">
    <path d="M 624.759828 248.2 
L 630.23787 248.2 
L 630.23787 247.53625 
L 624.759828 247.53625 
z
" clip-path="url(#p255310922a)" style="fill: #ff7f0e; opacity: 0.6"/>
   </g>
   <g id="patch_184">
    <path d="M 630.23787 248.2 
L 635.715911 248.2 
L 635.715911 247.669 
L 630.23787 247.669 
z
" clip-path="url(#p255310922a)" style="fill: #ff7f0e; opacity: 0.6"/>
   </g>
   <g id="patch_185">
    <path d="M 635.715911 248.2 
L 641.193952 248.2 
L 641.193952 247.27075 
L 635.715911 247.27075 
z
" clip-path="url(#p255310922a)" style="fill: #ff7f0e; opacity: 0.6"/>
   </g>
   <g id="patch_186">
    <path d="M 641.193952 248.2 
L 646.671993 248.2 
L 646.671993 247.27075 
L 641.193952 247.27075 
z
" clip-path="url(#p255310922a)" style="fill: #ff7f0e; opacity: 0.6"/>
   </g>
   <g id="patch_187">
    <path d="M 646.671993 248.2 
L 652.150035 248.2 
L 652.150035 247.005249 
L 646.671993 247.005249 
z
" clip-path="url(#p255310922a)" style="fill: #ff7f0e; opacity: 0.6"/>
   </g>
   <g id="patch_188">
    <path d="M 652.150035 248.2 
L 657.628076 248.2 
L 657.628076 247.53625 
L 652.150035 247.53625 
z
" clip-path="url(#p255310922a)" style="fill: #ff7f0e; opacity: 0.6"/>
   </g>
   <g id="patch_189">
    <path d="M 657.628076 248.2 
L 663.106117 248.2 
L 663.106117 247.005249 
L 657.628076 247.005249 
z
" clip-path="url(#p255310922a)" style="fill: #ff7f0e; opacity: 0.6"/>
   </g>
   <g id="patch_190">
    <path d="M 663.106117 248.2 
L 668.584158 248.2 
L 668.584158 247.005249 
L 663.106117 247.005249 
z
" clip-path="url(#p255310922a)" style="fill: #ff7f0e; opacity: 0.6"/>
   </g>
   <g id="patch_191">
    <path d="M 668.584158 248.2 
L 674.062199 248.2 
L 674.062199 247.4035 
L 668.584158 247.4035 
z
" clip-path="url(#p255310922a)" style="fill: #ff7f0e; opacity: 0.6"/>
   </g>
   <g id="patch_192">
    <path d="M 674.062199 248.2 
L 679.540241 248.2 
L 679.540241 247.27075 
L 674.062199 247.27075 
z
" clip-path="url(#p255310922a)" style="fill: #ff7f0e; opacity: 0.6"/>
   </g>
   <g id="patch_193">
    <path d="M 679.540241 248.2 
L 685.018282 248.2 
L 685.018282 247.27075 
L 679.540241 247.27075 
z
" clip-path="url(#p255310922a)" style="fill: #ff7f0e; opacity: 0.6"/>
   </g>
   <g id="patch_194">
    <path d="M 685.018282 248.2 
L 690.496323 248.2 
L 690.496323 246.739749 
L 685.018282 246.739749 
z
" clip-path="url(#p255310922a)" style="fill: #ff7f0e; opacity: 0.6"/>
   </g>
   <g id="patch_195">
    <path d="M 690.496323 248.2 
L 695.974364 248.2 
L 695.974364 242.889998 
L 690.496323 242.889998 
z
" clip-path="url(#p255310922a)" style="fill: #ff7f0e; opacity: 0.6"/>
   </g>
   <g id="matplotlib.axis_5">
    <g id="xtick_9">
     <g id="line2d_24">
      <g>
       <use xlink:href="#m000b5d50b2" x="544.740097" y="248.2" style="stroke: #000000; stroke-width: 0.8"/>
      </g>
     </g>
     <g id="text_32">
      <!-- 90 -->
      <g transform="translate(539.013847 262.038594) scale(0.09 -0.09)">
       <use xlink:href="#DejaVuSans-39"/>
       <use xlink:href="#DejaVuSans-30" transform="translate(63.623047 0)"/>
      </g>
     </g>
    </g>
    <g id="xtick_10">
     <g id="line2d_25">
      <g>
       <use xlink:href="#m000b5d50b2" x="595.15152" y="248.2" style="stroke: #000000; stroke-width: 0.8"/>
      </g>
     </g>
     <g id="text_33">
      <!-- 100 -->
      <g transform="translate(586.562145 262.038594) scale(0.09 -0.09)">
       <use xlink:href="#DejaVuSans-31"/>
       <use xlink:href="#DejaVuSans-30" transform="translate(63.623047 0)"/>
       <use xlink:href="#DejaVuSans-30" transform="translate(127.246094 0)"/>
      </g>
     </g>
    </g>
    <g id="xtick_11">
     <g id="line2d_26">
      <g>
       <use xlink:href="#m000b5d50b2" x="645.562942" y="248.2" style="stroke: #000000; stroke-width: 0.8"/>
      </g>
     </g>
     <g id="text_34">
      <!-- 110 -->
      <g transform="translate(636.973567 262.038594) scale(0.09 -0.09)">
       <use xlink:href="#DejaVuSans-31"/>
       <use xlink:href="#DejaVuSans-31" transform="translate(63.623047 0)"/>
       <use xlink:href="#DejaVuSans-30" transform="translate(127.246094 0)"/>
      </g>
     </g>
    </g>
    <g id="xtick_12">
     <g id="line2d_27">
      <g>
       <use xlink:href="#m000b5d50b2" x="695.974364" y="248.2" style="stroke: #000000; stroke-width: 0.8"/>
      </g>
     </g>
     <g id="text_35">
      <!-- 120 -->
      <g transform="translate(687.384989 262.038594) scale(0.09 -0.09)">
       <use xlink:href="#DejaVuSans-31"/>
       <use xlink:href="#DejaVuSans-32" transform="translate(63.623047 0)"/>
       <use xlink:href="#DejaVuSans-30" transform="translate(127.246094 0)"/>
      </g>
     </g>
    </g>
    <g id="text_36">
     <!-- Value -->
     <g transform="translate(597.514703 276.268594) scale(0.11 -0.11)">
      <use xlink:href="#DejaVuSans-56"/>
      <use xlink:href="#DejaVuSans-61" transform="translate(60.658203 0)"/>
      <use xlink:href="#DejaVuSans-6c" transform="translate(121.9375 0)"/>
      <use xlink:href="#DejaVuSans-75" transform="translate(149.720703 0)"/>
      <use xlink:href="#DejaVuSans-65" transform="translate(213.099609 0)"/>
     </g>
    </g>
   </g>
   <g id="matplotlib.axis_6">
    <g id="ytick_16">
     <g id="line2d_28">
      <g>
       <use xlink:href="#m7d2c34a6a4" x="520.928262" y="248.2" style="stroke: #000000; stroke-width: 0.8"/>
      </g>
     </g>
     <g id="text_37">
      <!-- 0.0 -->
      <g transform="translate(499.61545 251.619297) scale(0.09 -0.09)">
       <use xlink:href="#DejaVuSans-30"/>
       <use xlink:href="#DejaVuSans-2e" transform="translate(63.623047 0)"/>
       <use xlink:href="#DejaVuSans-30" transform="translate(95.410156 0)"/>
      </g>
     </g>
    </g>
    <g id="ytick_17">
     <g id="line2d_29">
      <g>
       <use xlink:href="#m7d2c34a6a4" x="520.928262" y="219.348988" style="stroke: #000000; stroke-width: 0.8"/>
      </g>
     </g>
     <g id="text_38">
      <!-- 0.1 -->
      <g transform="translate(499.61545 222.768285) scale(0.09 -0.09)">
       <use xlink:href="#DejaVuSans-30"/>
       <use xlink:href="#DejaVuSans-2e" transform="translate(63.623047 0)"/>
       <use xlink:href="#DejaVuSans-31" transform="translate(95.410156 0)"/>
      </g>
     </g>
    </g>
    <g id="ytick_18">
     <g id="line2d_30">
      <g>
       <use xlink:href="#m7d2c34a6a4" x="520.928262" y="190.497976" style="stroke: #000000; stroke-width: 0.8"/>
      </g>
     </g>
     <g id="text_39">
      <!-- 0.2 -->
      <g transform="translate(499.61545 193.917272) scale(0.09 -0.09)">
       <use xlink:href="#DejaVuSans-30"/>
       <use xlink:href="#DejaVuSans-2e" transform="translate(63.623047 0)"/>
       <use xlink:href="#DejaVuSans-32" transform="translate(95.410156 0)"/>
      </g>
     </g>
    </g>
    <g id="ytick_19">
     <g id="line2d_31">
      <g>
       <use xlink:href="#m7d2c34a6a4" x="520.928262" y="161.646963" style="stroke: #000000; stroke-width: 0.8"/>
      </g>
     </g>
     <g id="text_40">
      <!-- 0.3 -->
      <g transform="translate(499.61545 165.06626) scale(0.09 -0.09)">
       <use xlink:href="#DejaVuSans-30"/>
       <use xlink:href="#DejaVuSans-2e" transform="translate(63.623047 0)"/>
       <use xlink:href="#DejaVuSans-33" transform="translate(95.410156 0)"/>
      </g>
     </g>
    </g>
    <g id="ytick_20">
     <g id="line2d_32">
      <g>
       <use xlink:href="#m7d2c34a6a4" x="520.928262" y="132.795951" style="stroke: #000000; stroke-width: 0.8"/>
      </g>
     </g>
     <g id="text_41">
      <!-- 0.4 -->
      <g transform="translate(499.61545 136.215248) scale(0.09 -0.09)">
       <defs>
        <path id="DejaVuSans-34" d="M 2419 4116 
L 825 1625 
L 2419 1625 
L 2419 4116 
z
M 2253 4666 
L 3047 4666 
L 3047 1625 
L 3713 1625 
L 3713 1100 
L 3047 1100 
L 3047 0 
L 2419 0 
L 2419 1100 
L 313 1100 
L 313 1709 
L 2253 4666 
z
" transform="scale(0.015625)"/>
       </defs>
       <use xlink:href="#DejaVuSans-30"/>
       <use xlink:href="#DejaVuSans-2e" transform="translate(63.623047 0)"/>
       <use xlink:href="#DejaVuSans-34" transform="translate(95.410156 0)"/>
      </g>
     </g>
    </g>
    <g id="ytick_21">
     <g id="line2d_33">
      <g>
       <use xlink:href="#m7d2c34a6a4" x="520.928262" y="103.944939" style="stroke: #000000; stroke-width: 0.8"/>
      </g>
     </g>
     <g id="text_42">
      <!-- 0.5 -->
      <g transform="translate(499.61545 107.364236) scale(0.09 -0.09)">
       <use xlink:href="#DejaVuSans-30"/>
       <use xlink:href="#DejaVuSans-2e" transform="translate(63.623047 0)"/>
       <use xlink:href="#DejaVuSans-35" transform="translate(95.410156 0)"/>
      </g>
     </g>
    </g>
    <g id="ytick_22">
     <g id="line2d_34">
      <g>
       <use xlink:href="#m7d2c34a6a4" x="520.928262" y="75.093927" style="stroke: #000000; stroke-width: 0.8"/>
      </g>
     </g>
     <g id="text_43">
      <!-- 0.6 -->
      <g transform="translate(499.61545 78.513223) scale(0.09 -0.09)">
       <use xlink:href="#DejaVuSans-30"/>
       <use xlink:href="#DejaVuSans-2e" transform="translate(63.623047 0)"/>
       <use xlink:href="#DejaVuSans-36" transform="translate(95.410156 0)"/>
      </g>
     </g>
    </g>
    <g id="text_44">
     <!-- Density -->
     <g transform="translate(493.327793 177.049453) rotate(-90) scale(0.11 -0.11)">
      <use xlink:href="#DejaVuSans-44"/>
      <use xlink:href="#DejaVuSans-65" transform="translate(77.001953 0)"/>
      <use xlink:href="#DejaVuSans-6e" transform="translate(138.525391 0)"/>
      <use xlink:href="#DejaVuSans-73" transform="translate(201.904297 0)"/>
      <use xlink:href="#DejaVuSans-69" transform="translate(254.003906 0)"/>
      <use xlink:href="#DejaVuSans-74" transform="translate(281.787109 0)"/>
      <use xlink:href="#DejaVuSans-79" transform="translate(320.996094 0)"/>
     </g>
    </g>
   </g>
   <g id="patch_196">
    <path d="M 520.928262 248.2 
L 520.928262 64.08 
" style="fill: none; stroke: #000000; stroke-width: 0.8; stroke-linejoin: miter; stroke-linecap: square"/>
   </g>
   <g id="patch_197">
    <path d="M 704.309893 248.2 
L 704.309893 64.08 
" style="fill: none; stroke: #000000; stroke-width: 0.8; stroke-linejoin: miter; stroke-linecap: square"/>
   </g>
   <g id="patch_198">
    <path d="M 520.928262 248.2 
L 704.309893 248.2 
" style="fill: none; stroke: #000000; stroke-width: 0.8; stroke-linejoin: miter; stroke-linecap: square"/>
   </g>
   <g id="patch_199">
    <path d="M 520.928262 64.08 
L 704.309893 64.08 
" style="fill: none; stroke: #000000; stroke-width: 0.8; stroke-linejoin: miter; stroke-linecap: square"/>
   </g>
   <g id="text_45">
    <!-- vibration_s1 -->
    <g transform="translate(576.012515 58.08) scale(0.12 -0.12)">
     <defs>
      <path id="DejaVuSans-76" d="M 191 3500 
L 800 3500 
L 1894 563 
L 2988 3500 
L 3597 3500 
L 2284 0 
L 1503 0 
L 191 3500 
z
" transform="scale(0.015625)"/>
      <path id="DejaVuSans-62" d="M 3116 1747 
Q 3116 2381 2855 2742 
Q 2594 3103 2138 3103 
Q 1681 3103 1420 2742 
Q 1159 2381 1159 1747 
Q 1159 1113 1420 752 
Q 1681 391 2138 391 
Q 2594 391 2855 752 
Q 3116 1113 3116 1747 
z
M 1159 2969 
Q 1341 3281 1617 3432 
Q 1894 3584 2278 3584 
Q 2916 3584 3314 3078 
Q 3713 2572 3713 1747 
Q 3713 922 3314 415 
Q 2916 -91 2278 -91 
Q 1894 -91 1617 61 
Q 1341 213 1159 525 
L 1159 0 
L 581 0 
L 581 4863 
L 1159 4863 
L 1159 2969 
z
" transform="scale(0.015625)"/>
     </defs>
     <use xlink:href="#DejaVuSans-76"/>
     <use xlink:href="#DejaVuSans-69" transform="translate(59.179688 0)"/>
     <use xlink:href="#DejaVuSans-62" transform="translate(86.962891 0)"/>
     <use xlink:href="#DejaVuSans-72" transform="translate(150.439453 0)"/>
     <use xlink:href="#DejaVuSans-61" transform="translate(191.552734 0)"/>
     <use xlink:href="#DejaVuSans-74" transform="translate(252.832031 0)"/>
     <use xlink:href="#DejaVuSans-69" transform="translate(292.041016 0)"/>
     <use xlink:href="#DejaVuSans-6f" transform="translate(319.824219 0)"/>
     <use xlink:href="#DejaVuSans-6e" transform="translate(381.005859 0)"/>
     <use xlink:href="#DejaVuSans-5f" transform="translate(444.384766 0)"/>
     <use xlink:href="#DejaVuSans-73" transform="translate(494.384766 0)"/>
     <use xlink:href="#DejaVuSans-31" transform="translate(546.484375 0)"/>
    </g>
   </g>
  </g>
  <g id="text_46">
   <!-- Sensor Value Distributions by Class (Normal vs Fault) -->
   <g transform="translate(197.109063 16.318125) scale(0.12 -0.12)">
    <defs>
     <path id="DejaVuSans-53" d="M 3425 4513 
L 3425 3897 
Q 3066 4069 2747 4153 
Q 2428 4238 2131 4238 
Q 1616 4238 1336 4038 
Q 1056 3838 1056 3469 
Q 1056 3159 1242 3001 
Q 1428 2844 1947 2747 
L 2328 2669 
Q 3034 2534 3370 2195 
Q 3706 1856 3706 1288 
Q 3706 609 3251 259 
Q 2797 -91 1919 -91 
Q 1588 -91 1214 -16 
Q 841 59 441 206 
L 441 856 
Q 825 641 1194 531 
Q 1563 422 1919 422 
Q 2459 422 2753 634 
Q 3047 847 3047 1241 
Q 3047 1584 2836 1778 
Q 2625 1972 2144 2069 
L 1759 2144 
Q 1053 2284 737 2584 
Q 422 2884 422 3419 
Q 422 4038 858 4394 
Q 1294 4750 2059 4750 
Q 2388 4750 2728 4690 
Q 3069 4631 3425 4513 
z
" transform="scale(0.015625)"/>
     <path id="DejaVuSans-20" transform="scale(0.015625)"/>
     <path id="DejaVuSans-43" d="M 4122 4306 
L 4122 3641 
Q 3803 3938 3442 4084 
Q 3081 4231 2675 4231 
Q 1875 4231 1450 3742 
Q 1025 3253 1025 2328 
Q 1025 1406 1450 917 
Q 1875 428 2675 428 
Q 3081 428 3442 575 
Q 3803 722 4122 1019 
L 4122 359 
Q 3791 134 3420 21 
Q 3050 -91 2638 -91 
Q 1578 -91 968 557 
Q 359 1206 359 2328 
Q 359 3453 968 4101 
Q 1578 4750 2638 4750 
Q 3056 4750 3426 4639 
Q 3797 4528 4122 4306 
z
" transform="scale(0.015625)"/>
     <path id="DejaVuSans-28" d="M 1984 4856 
Q 1566 4138 1362 3434 
Q 1159 2731 1159 2009 
Q 1159 1288 1364 580 
Q 1569 -128 1984 -844 
L 1484 -844 
Q 1016 -109 783 600 
Q 550 1309 550 2009 
Q 550 2706 781 3412 
Q 1013 4119 1484 4856 
L 1984 4856 
z
" transform="scale(0.015625)"/>
     <path id="DejaVuSans-29" d="M 513 4856 
L 1013 4856 
Q 1481 4119 1714 3412 
Q 1947 2706 1947 2009 
Q 1947 1309 1714 600 
Q 1481 -109 1013 -844 
L 513 -844 
Q 928 -128 1133 580 
Q 1338 1288 1338 2009 
Q 1338 2731 1133 3434 
Q 928 4138 513 4856 
z
" transform="scale(0.015625)"/>
    </defs>
    <use xlink:href="#DejaVuSans-53"/>
    <use xlink:href="#DejaVuSans-65" transform="translate(63.476562 0)"/>
    <use xlink:href="#DejaVuSans-6e" transform="translate(125 0)"/>
    <use xlink:href="#DejaVuSans-73" transform="translate(188.378906 0)"/>
    <use xlink:href="#DejaVuSans-6f" transform="translate(240.478516 0)"/>
    <use xlink:href="#DejaVuSans-72" transform="translate(301.660156 0)"/>
    <use xlink:href="#DejaVuSans-20" transform="translate(342.773438 0)"/>
    <use xlink:href="#DejaVuSans-56" transform="translate(374.560547 0)"/>
    <use xlink:href="#DejaVuSans-61" transform="translate(435.21875 0)"/>
    <use xlink:href="#DejaVuSans-6c" transform="translate(496.498047 0)"/>
    <use xlink:href="#DejaVuSans-75" transform="translate(524.28125 0)"/>
    <use xlink:href="#DejaVuSans-65" transform="translate(587.660156 0)"/>
    <use xlink:href="#DejaVuSans-20" transform="translate(649.183594 0)"/>
    <use xlink:href="#DejaVuSans-44" transform="translate(680.970703 0)"/>
    <use xlink:href="#DejaVuSans-69" transform="translate(757.972656 0)"/>
    <use xlink:href="#DejaVuSans-73" transform="translate(785.755859 0)"/>
    <use xlink:href="#DejaVuSans-74" transform="translate(837.855469 0)"/>
    <use xlink:href="#DejaVuSans-72" transform="translate(877.064453 0)"/>
    <use xlink:href="#DejaVuSans-69" transform="translate(918.177734 0)"/>
    <use xlink:href="#DejaVuSans-62" transform="translate(945.960938 0)"/>
    <use xlink:href="#DejaVuSans-75" transform="translate(1009.4375 0)"/>
    <use xlink:href="#DejaVuSans-74" transform="translate(1072.816406 0)"/>
    <use xlink:href="#DejaVuSans-69" transform="translate(1112.025391 0)"/>
    <use xlink:href="#DejaVuSans-6f" transform="translate(1139.808594 0)"/>
    <use xlink:href="#DejaVuSans-6e" transform="translate(1200.990234 0)"/>
    <use xlink:href="#DejaVuSans-73" transform="translate(1264.369141 0)"/>
    <use xlink:href="#DejaVuSans-20" transform="translate(1316.46875 0)"/>
    <use xlink:href="#DejaVuSans-62" transform="translate(1348.255859 0)"/>
    <use xlink:href="#DejaVuSans-79" transform="translate(1411.732422 0)"/>
    <use xlink:href="#DejaVuSans-20" transform="translate(1470.912109 0)"/>
    <use xlink:href="#DejaVuSans-43" transform="translate(1502.699219 0)"/>
    <use xlink:href="#DejaVuSans-6c" transform="translate(1572.523438 0)"/>
    <use xlink:href="#DejaVuSans-61" transform="translate(1600.306641 0)"/>
    <use xlink:href="#DejaVuSans-73" transform="translate(1661.585938 0)"/>
    <use xlink:href="#DejaVuSans-73" transform="translate(1713.685547 0)"/>
    <use xlink:href="#DejaVuSans-20" transform="translate(1765.785156 0)"/>
    <use xlink:href="#DejaVuSans-28" transform="translate(1797.572266 0)"/>
    <use xlink:href="#DejaVuSans-4e" transform="translate(1836.585938 0)"/>
    <use xlink:href="#DejaVuSans-6f" transform="translate(1911.390625 0)"/>
    <use xlink:href="#DejaVuSans-72" transform="translate(1972.572266 0)"/>
    <use xlink:href="#DejaVuSans-6d" transform="translate(2011.935547 0)"/>
    <use xlink:href="#DejaVuSans-61" transform="translate(2109.347656 0)"/>
    <use xlink:href="#DejaVuSans-6c" transform="translate(2170.626953 0)"/>
    <use xlink:href="#DejaVuSans-20" transform="translate(2198.410156 0)"/>
    <use xlink:href="#DejaVuSans-76" transform="translate(2230.197266 0)"/>
    <use xlink:href="#DejaVuSans-73" transform="translate(2289.376953 0)"/>
    <use xlink:href="#DejaVuSans-20" transform="translate(2341.476562 0)"/>
    <use xlink:href="#DejaVuSans-46" transform="translate(2373.263672 0)"/>
    <use xlink:href="#DejaVuSans-61" transform="translate(2421.658203 0)"/>
    <use xlink:href="#DejaVuSans-75" transform="translate(2482.9375 0)"/>
    <use xlink:href="#DejaVuSans-6c" transform="translate(2546.316406 0)"/>
    <use xlink:href="#DejaVuSans-74" transform="translate(2574.099609 0)"/>
    <use xlink:href="#DejaVuSans-29" transform="translate(2613.308594 0)"/>
   </g>
  </g>
 </g>
 <defs>
  <clipPath id="pf5558a4c87">
   <rect x="48.885" y="64.08" width="183.381631" height="184.12"/>
  </clipPath>
  <clipPath id="p832a921bae">
   <rect x="284.906631" y="64.08" width="183.381631" height="184.12"/>
  </clipPath>
  <clipPath id="p255310922a">
   <rect x="520.928262" y="64.08" width="183.381631" height="184.12"/>
  </clipPath>
 </defs>
</svg>
